<?xml version="1.0" encoding="UTF-8"?><!DOCTYPE svg PUBLIC "-//W3C//DTD SVG 1.1//EN" "http://www.w3.org/Graphics/SVG/1.1/DTD/svg11.dtd"><svg xmlns="http://www.w3.org/2000/svg"><symbol id="ic_add_white_24px" viewBox="0 0 24 24"><path d="M19 13h-6v6h-2v-6H5v-2h6V5h2v6h6v2z"/><path d="M0 0h24v24H0z" fill="none"/></symbol><symbol id="ic_chevron_right_white_24px" viewBox="0 0 24 24"><path d="M10 6L8.59 7.41 13.17 12l-4.58 4.59L10 18l6-6z"/><path d="M0 0h24v24H0z" fill="none"/></symbol><symbol id="ic_file_download_white_24px" viewBox="0 0 24 24"><path d="M19 9h-4V3H9v6H5l7 7 7-7zM5 18v2h14v-2H5z"/><path d="M0 0h24v24H0z" fill="none"/></symbol><symbol id="ic_menu_white_24px" viewBox="0 0 24 24"><path d="M0 0h24v24H0z" fill="none"/><path d="M3 18h18v-2H3v2zm0-5h18v-2H3v2zm0-7v2h18V6H3z"/></symbol><symbol id="ic_remove_white_24px" viewBox="0 0 24 24"><path d="M19 13H5v-2h14v2z"/><path d="M0 0h24v24H0z" fill="none"/></symbol><symbol id="schdesign_logo" viewBox="0 0 1259.5 337.4"><path fill="#F8485E" d="M563 0v93.2s-.1 0-.1-.1c-11.9-9.4-27-15-43.4-15-19.3 0-36.8 7.8-49.4 20.4-3.8 3.8-7.2 8.1-10.1 12.7-6.3 10.1-10 21.9-10.5 34.5v4.8c.4 12.6 4.2 24.4 10.5 34.4 2.9 4.6 6.2 8.9 10.1 12.7 12.7 12.6 30.2 20.5 49.5 20.5 16.4 0 31.4-5.6 43.4-15 0 0 .1 0 .1-.1 2.1-1.7 4.1-3.5 6-5.4 3.8-3.8 7.2-8 10-12.6 6.5-10.5 10.4-22.9 10.5-36.2V78h.2V0H563zm-43.5 191.4c-12 0-22.8-4.8-30.6-12.7-2.4-2.4-4.5-5-6.2-7.8-4.1-6.6-6.5-14.5-6.5-22.9 0-8.4 2.4-16.2 6.5-22.8 1.8-2.9 3.9-5.5 6.2-7.9 7.8-7.8 18.7-12.7 30.7-12.7s22.8 4.8 30.7 12.7c2.4 2.4 4.5 5 6.3 7.9 3.8 6.2 6.2 13.5 6.4 21.3v3c-.3 7.8-2.6 15.1-6.5 21.4-1.8 2.8-3.9 5.5-6.2 7.8-8 7.9-18.8 12.7-30.8 12.7zM919.7 78.5h26.5v139.6h-26.5zM1249.1 111.1c-2.9-4.6-6.3-8.9-10.1-12.8-1.9-1.9-4-3.7-6.1-5.4-11.9-9.4-27-15-43.4-15s-31.4 5.6-43.3 15c-2.2 1.7-4.2 3.5-6.2 5.5-3.8 3.8-7.2 8.1-10.1 12.7-6.2 10.1-10 21.8-10.4 34.4v5c.6 18.4 8.4 35 20.5 47.1 1.9 1.9 4 3.8 6.1 5.5v-52.8c0-.8-.1-1.5-.1-2.3s0-1.5.1-2.3c.4-7.5 2.7-14.5 6.4-20.5 1.8-2.9 3.9-5.5 6.2-7.9 7.8-7.8 18.7-12.7 30.7-12.7s22.8 4.8 30.7 12.7c2.4 2.4 4.5 5 6.3 7.9 3.8 6.2 6.2 13.5 6.4 21.3V218h26.7v-70.8c-.1-13.2-3.9-25.6-10.4-36.1zM745 134.6c-1.6-8.4-4.8-16.3-9.1-23.4-2.9-4.6-6.3-8.9-10.1-12.8C713.1 85.9 695.6 78 676.3 78s-36.8 7.8-49.5 20.5c-3.8 3.8-7.2 8.1-10.1 12.7-4.4 7.1-7.5 15-9.2 23.4-.7 3.6-1.1 7.2-1.2 11v4.9c.1 3.7.5 7.4 1.2 11 1.6 8.5 4.8 16.4 9.2 23.5 2.9 4.6 6.2 8.9 10.1 12.7 12.7 12.6 30.2 20.5 49.5 20.5s36.8-7.8 49.5-20.5L707 178.8c-7.8 7.8-18.7 12.7-30.6 12.7-12 0-22.8-4.8-30.6-12.7-2.4-2.4-4.5-5-6.2-7.8-1.8-2.9-3.3-6.1-4.4-9.5-.7-2-1.2-4.2-1.5-6.3l16.2-4 10.1-2.5 12.6-3.1 1.2-.3 2.7-.7-4.5-1.1-4.6-1.1-5.9-1.4-10.1-2.5-16.2-4c1.1-3.3 2.5-6.5 4.3-9.4 1.8-2.9 3.9-5.5 6.2-7.9 7.8-7.8 18.7-12.7 30.7-12.7s22.8 4.8 30.7 12.7c2.4 2.4 4.5 5 6.3 7.9 1.8 2.9 3.3 6 4.3 9.3l-16.2 4-10.1 2.5-5.8 1.4-4.7 1.2-4.5 1.1 2.7.7 1.3.3 12.5 3.1 10.1 2.5 16.2 4 25.9 6.3c.8-4.1 1.2-8.4 1.3-12.7v-1.4c-.1-4.4-.6-8.6-1.4-12.8z"/><path fill="#F8485E" d="M745 134.6c-6.3-32.2-34.7-56.6-68.7-56.6-19.3 0-36.8 7.8-49.5 20.5-9.7 9.7-16.5 22.1-19.2 36.1-.7 3.6-1.1 7.2-1.2 11v4.9c.1 3.7.5 7.4 1.2 11 6.3 32.3 34.7 56.6 68.7 56.6 19.3 0 36.8-7.8 49.5-20.5L707 178.7c-7.8 7.8-18.7 12.7-30.6 12.7-19.3 0-35.6-12.6-41.3-30h110c.8-4.1 1.2-8.4 1.3-12.7v-1.4c-.1-4.3-.6-8.5-1.4-12.7zm-110 0c2.1-6.6 5.8-12.5 10.6-17.2 7.8-7.8 18.7-12.7 30.7-12.7 19.3 0 35.6 12.6 41.3 29.9H635zM1092.4 111.1c-2.9-4.6-6.3-8.9-10.1-12.8-1.9-1.9-4-3.7-6.1-5.4-11.9-9.4-27-15-43.4-15s-31.4 5.6-43.3 15c-2.2 1.7-4.2 3.5-6.2 5.5-3.8 3.8-7.2 8.1-10.1 12.7-5.3 8.6-8.8 18.4-10 29-.2 1.8-.3 3.6-.4 5.4v4.9c.4 12.6 4.2 24.4 10.5 34.4 2.9 4.6 6.2 8.9 10.1 12.7 1.9 1.9 4 3.8 6.1 5.5 11.9 9.4 27 15 43.3 15 16.4 0 31.4-5.6 43.4-15 2.1-1.7 4.2-3.5 6.1-5.4 3.8-3.8 7.2-8 10-12.6 6.5-10.5 10.4-22.9 10.5-36.2v-1.4c-.1-13.4-3.9-25.8-10.4-36.3zm-59.6 80.2c-12 0-22.8-4.8-30.6-12.7-2.4-2.4-4.5-5-6.2-7.8-3.8-6-6.1-13.1-6.5-20.6 0-.8-.1-1.5-.1-2.3 0-.8 0-1.5.1-2.3.4-7.5 2.7-14.5 6.4-20.5 1.8-2.9 3.9-5.5 6.2-7.9 7.8-7.8 18.7-12.7 30.7-12.7s22.8 4.8 30.7 12.7c2.4 2.4 4.5 5 6.3 7.9 3.8 6.2 6.2 13.5 6.4 21.3v3c-.3 7.8-2.6 15.1-6.5 21.4-1.8 2.8-3.9 5.5-6.2 7.8-7.9 7.8-18.7 12.7-30.7 12.7zM1102.8 267.4c0 13.5-3.8 26.2-10.5 36.9-2.9 4.6-6.2 8.8-10 12.6-1.9 1.9-4 3.7-6.1 5.4-11.9 9.4-27 15-43.4 15s-31.4-5.6-43.3-15c-2.2-1.7-4.2-3.5-6.1-5.5l6.1-6.2 12.7-12.7c7.8 7.8 18.7 12.7 30.6 12.7 12 0 22.8-4.8 30.6-12.7 2.4-2.4 4.4-5 6.2-7.8 3.9-6.2 6.2-13.6 6.5-21.4v-1.5-1.5c-.3-7.8-2.6-15.1-6.4-21.3-1.8-2.9-3.9-5.5-6.3-7.9l12.7-12.7 6.1-6.1c3.8 3.8 7.2 8.1 10.1 12.8 6.7 10.8 10.5 23.4 10.5 36.9z"/><path fill="#FFF" d="M276.2 197.6c-12.7 12.7-30.2 20.5-49.5 20.5s-36.8-7.8-49.5-20.5c-12.2-12.1-19.9-28.7-20.5-47.1v-4.9c.6-18.4 8.3-35 20.5-47.1C189.8 85.9 207.3 78 226.7 78c19.3 0 36.8 7.8 49.5 20.5l-18.8 18.9c-7.8-7.8-18.7-12.7-30.7-12.7s-22.8 4.9-30.7 12.7c-7.9 7.9-12.7 18.7-12.7 30.7s4.9 22.9 12.7 30.7c7.8 7.8 18.7 12.7 30.6 12.7 12 0 22.8-4.8 30.6-12.7l19 18.8zM412.3 98.5c-1.9-1.9-4-3.8-6.1-5.5-11.9-9.4-27-15-43.3-15-16.4 0-31.4 5.6-43.3 15V0h-26.7v150.4c.6 18.4 8.4 35 20.5 47.1 1.9 1.9 4 3.8 6.1 5.5v-52.7c0-.8-.1-1.5-.1-2.3 0-.8 0-1.5.1-2.3.4-7.5 2.7-14.5 6.4-20.5 1.8-2.9 3.9-5.5 6.2-7.9 7.8-7.8 18.7-12.7 30.7-12.7s22.8 4.8 30.7 12.7c7.4 7.4 12.2 17.5 12.7 28.8V218h26.7v-70c0-19.3-7.9-36.8-20.6-49.5zM138.7 134.6h-110c1.1-3.3 2.5-6.5 4.3-9.4 1.8-2.9 3.9-5.5 6.2-7.9 7.8-7.8 18.7-12.7 30.7-12.7s22.8 4.8 30.7 12.7l18.8-18.9C106.8 85.9 89.3 78 70 78c-16.4 0-31.4 5.6-43.3 15-2.2 1.7-4.2 3.5-6.2 5.5-3.8 3.8-7.2 8.1-10.1 12.7-4.4 7.1-7.5 15-9.2 23.4-.7 3.6-1.1 7.2-1.2 11v4.9c.1 3.7.5 7.4 1.2 11h110c-1.1 3.4-2.6 6.5-4.4 9.5-1.8 2.8-3.9 5.5-6.2 7.8-7.8 7.8-18.7 12.7-30.6 12.7-12 0-22.8-4.8-30.6-12.7l-12.7 12.7-6.1 6.2c1.9 1.9 4 3.8 6.1 5.5 11.9 9.4 27 15 43.3 15 19.3 0 36.8-7.8 49.5-20.5 3.8-3.8 7.2-8 10-12.6 4.4-7.1 7.6-15 9.2-23.5.8-4.1 1.2-8.4 1.3-12.7v-1.4c0-4.5-.5-8.7-1.3-12.9zM70 148.1l-.2.1.2-.1z"/><g fill="#FFF"><path d="M882.5 98.5l-18.8 18.9c-7.8-7.8-18.7-12.7-30.7-12.7s-22.8 4.9-30.7 12.7c-2.4 2.4-4.5 5-6.2 7.9-1.8 2.9-3.3 6.1-4.3 9.4-.5 1.7-1 3.4-1.3 5.1l16.3 3.2 10.1 2 16.1 3.1-16.1 3.2-10.1 2-16.3 3.2-26.2 5.1c-.7-3.6-1.1-7.2-1.2-11v-4.9c.1-3.7.6-7.4 1.2-11 1.6-8.4 4.8-16.3 9.2-23.4 2.9-4.6 6.2-8.9 10.1-12.7C796.1 85.9 813.6 78 833 78c19.3 0 36.8 7.9 49.5 20.5z"/><path d="M903 147.3v1.4c0 4.3-.5 8.6-1.3 12.7h-.1.1c-1.6 8.5-4.8 16.4-9.2 23.5-2.9 4.6-6.2 8.8-10 12.6-12.7 12.7-30.2 20.5-49.5 20.5s-36.8-7.8-49.5-20.5l18.8-18.9c7.8 7.8 18.7 12.7 30.6 12.7 12 0 22.8-4.8 30.6-12.7 2.4-2.4 4.4-5 6.2-7.8 1.8-2.9 3.3-6.1 4.4-9.5.5-1.7 1-3.4 1.3-5.1l-16.3-3.2-10.1-2-16.1-3.2.1-.1 16-3.1 10.1-2 16.3-3.2 26.2-5.1c.9 4.4 1.4 8.7 1.4 13z"/></g><circle fill="#F8485E" cx="932.3" cy="13.3" r="13.3"/><path fill="#F8485E" d="M901.7 134.6h-110c1.1-3.3 2.5-6.5 4.3-9.4 1.8-2.9 3.9-5.5 6.2-7.9 7.8-7.8 18.7-12.7 30.7-12.7s22.8 4.8 30.7 12.7l18.8-18.9C869.8 85.9 852.3 78 833 78c-16.4 0-31.4 5.6-43.3 15-2.2 1.7-4.2 3.5-6.2 5.5-3.8 3.8-7.2 8.1-10.1 12.7-4.4 7.1-7.5 15-9.2 23.4-.7 3.6-1.1 7.2-1.2 11v4.9c.1 3.7.5 7.4 1.2 11h110c-1.1 3.4-2.6 6.5-4.4 9.5-1.8 2.8-3.9 5.5-6.2 7.8-7.8 7.8-18.7 12.7-30.6 12.7-12 0-22.8-4.8-30.6-12.7l-12.7 12.7-6.1 6.2c1.9 1.9 4 3.8 6.1 5.5 11.9 9.4 27 15 43.3 15 19.3 0 36.8-7.8 49.5-20.5 3.8-3.8 7.2-8 10-12.6 4.4-7.1 7.6-15 9.2-23.5.8-4.1 1.2-8.4 1.3-12.7v-1.4c0-4.5-.5-8.7-1.3-12.9zM833 148.1l-.2.1.2-.1z"/></symbol></svg>