<?xml version="1.0" encoding="utf-8"?>
<!-- Generator: Adobe Illustrator 19.0.0, SVG Export Plug-In . SVG Version: 6.00 Build 0)  -->
<svg version="1.1" id="Layer_1" xmlns="http://www.w3.org/2000/svg" xmlns:xlink="http://www.w3.org/1999/xlink" x="0px" y="0px"
	 viewBox="0 0 1259.5 337.4" style="enable-background:new 0 0 1259.5 337.4;" xml:space="preserve">
<style type="text/css">
	.st0{fill:#3D3D3D;}
	.st1{fill:#F8485E;}
	.st2{fill:#FFFFFF;}
	.st3{opacity:0.4;}
</style>
<rect x="1508.8" y="-2034.7" class="st0" width="1921" height="1080"/>
<rect x="-3860" y="2837.6" class="st1" width="1920" height="1080"/>
<path class="st1" d="M563,0v93.2c0,0-0.1,0-0.1-0.1c-11.9-9.4-27-15-43.4-15c-19.3,0-36.8,7.8-49.4,20.4c-3.8,3.8-7.2,8.1-10.1,12.7
	c-6.3,10.1-10,21.9-10.5,34.5v4.8c0.4,12.6,4.2,24.4,10.5,34.4c2.9,4.6,6.2,8.9,10.1,12.7c12.7,12.6,30.2,20.5,49.5,20.5
	c16.4,0,31.4-5.6,43.4-15c0,0,0.1,0,0.1-0.1c2.1-1.7,4.1-3.5,6-5.4c3.8-3.8,7.2-8,10-12.6c6.5-10.5,10.4-22.9,10.5-36.2v-17.3h0V78
	h0l0,0h0.2V0H563z M519.5,191.4c-12,0-22.8-4.8-30.6-12.7c-2.4-2.4-4.5-5-6.2-7.8c-4.1-6.6-6.5-14.5-6.5-22.9
	c0-8.4,2.4-16.2,6.5-22.8c1.8-2.9,3.9-5.5,6.2-7.9c7.8-7.8,18.7-12.7,30.7-12.7c12,0,22.8,4.8,30.7,12.7c2.4,2.4,4.5,5,6.3,7.9
	c3.8,6.2,6.2,13.5,6.4,21.3c0,0.5,0,1,0,1.5c0,0.5,0,1,0,1.5c-0.3,7.8-2.6,15.1-6.5,21.4c-1.8,2.8-3.9,5.5-6.2,7.8
	C542.3,186.6,531.5,191.4,519.5,191.4z"/>
<rect x="919.7" y="78.5" class="st1" width="26.5" height="139.6"/>
<path class="st1" d="M1249.1,111.1c-2.9-4.6-6.3-8.9-10.1-12.8c-1.9-1.9-4-3.7-6.1-5.4c-11.9-9.4-27-15-43.4-15
	c-16.4,0-31.4,5.6-43.3,15c-2.2,1.7-4.2,3.5-6.2,5.5c-3.8,3.8-7.2,8.1-10.1,12.7c-6.2,10.1-10,21.8-10.4,34.4v5
	c0.6,18.4,8.4,35,20.5,47.1c1.9,1.9,4,3.8,6.1,5.5v-52.8c0-0.8-0.1-1.5-0.1-2.3s0-1.5,0.1-2.3c0.4-7.5,2.7-14.5,6.4-20.5
	c1.8-2.9,3.9-5.5,6.2-7.9c7.8-7.8,18.7-12.7,30.7-12.7c12,0,22.8,4.8,30.7,12.7c2.4,2.4,4.5,5,6.3,7.9c3.8,6.2,6.2,13.5,6.4,21.3
	c0,0.5,0,1,0,1.5s0,1,0,1.5V218h26.7v-70.8C1259.4,134,1255.6,121.6,1249.1,111.1z"/>
<g>
	<g>
		<path class="st1" d="M745,134.6c-6.3-32.2-34.7-56.6-68.7-56.6c-19.3,0-36.8,7.8-49.5,20.5c-9.7,9.7-16.5,22.1-19.2,36.1
			c-0.7,3.6-1.1,7.2-1.2,11v4.9c0.1,3.7,0.5,7.4,1.2,11c6.3,32.3,34.7,56.6,68.7,56.6c19.3,0,36.8-7.8,49.5-20.5l-18.8-18.9
			c-7.8,7.8-18.7,12.7-30.6,12.7c-19.3,0-35.6-12.6-41.3-30h110c0.8-4.1,1.2-8.4,1.3-12.7v-1.4C746.3,143,745.8,138.8,745,134.6z
			 M635,134.6c2.1-6.6,5.8-12.5,10.6-17.2c7.8-7.8,18.7-12.7,30.7-12.7c19.3,0,35.6,12.6,41.3,29.9H635z"/>
	</g>
</g>
<path class="st1" d="M1092.4,111.1c-2.9-4.6-6.3-8.9-10.1-12.8c-1.9-1.9-4-3.7-6.1-5.4c-11.9-9.4-27-15-43.4-15
	c-16.4,0-31.4,5.6-43.3,15c-2.2,1.7-4.2,3.5-6.2,5.5c-3.8,3.8-7.2,8.1-10.1,12.7c-5.3,8.6-8.8,18.4-10,29c-0.2,1.8-0.3,3.6-0.4,5.4
	v4.9c0.4,12.6,4.2,24.4,10.5,34.4c2.9,4.6,6.2,8.9,10.1,12.7c1.9,1.9,4,3.8,6.1,5.5c11.9,9.4,27,15,43.3,15c16.4,0,31.4-5.6,43.4-15
	c2.1-1.7,4.2-3.5,6.1-5.4c3.8-3.8,7.2-8,10-12.6c6.5-10.5,10.4-22.9,10.5-36.2v-1.4C1102.7,134,1098.9,121.6,1092.4,111.1z
	 M1032.8,191.3c-12,0-22.8-4.8-30.6-12.7c-2.4-2.4-4.5-5-6.2-7.8c-3.8-6-6.1-13.1-6.5-20.6c0-0.8-0.1-1.5-0.1-2.3
	c0-0.8,0-1.5,0.1-2.3c0.4-7.5,2.7-14.5,6.4-20.5c1.8-2.9,3.9-5.5,6.2-7.9c7.8-7.8,18.7-12.7,30.7-12.7c12,0,22.8,4.8,30.7,12.7
	c2.4,2.4,4.5,5,6.3,7.9c3.8,6.2,6.2,13.5,6.4,21.3c0,0.5,0,1,0,1.5s0,1,0,1.5c-0.3,7.8-2.6,15.1-6.5,21.4c-1.8,2.8-3.9,5.5-6.2,7.8
	C1055.6,186.4,1044.8,191.3,1032.8,191.3z"/>
<path class="st1" d="M1102.8,267.4c0,13.5-3.8,26.2-10.5,36.9c-2.9,4.6-6.2,8.8-10,12.6c-1.9,1.9-4,3.7-6.1,5.4
	c-11.9,9.4-27,15-43.4,15c-16.4,0-31.4-5.6-43.3-15c-2.2-1.7-4.2-3.5-6.1-5.5l6.1-6.2l12.7-12.7c7.8,7.8,18.7,12.7,30.6,12.7
	c12,0,22.8-4.8,30.6-12.7c2.4-2.4,4.4-5,6.2-7.8c3.9-6.2,6.2-13.6,6.5-21.4c0-0.5,0-1,0-1.5s0-1,0-1.5c-0.3-7.8-2.6-15.1-6.4-21.3
	c-1.8-2.9-3.9-5.5-6.3-7.9l12.7-12.7l6.1-6.1c3.8,3.8,7.2,8.1,10.1,12.8C1099,241.3,1102.8,253.9,1102.8,267.4z"/>
<path class="st2" d="M276.2,197.6c-12.7,12.7-30.2,20.5-49.5,20.5c-19.3,0-36.8-7.8-49.5-20.5c-12.2-12.1-19.9-28.7-20.5-47.1v-4.9
	c0.6-18.4,8.3-35,20.5-47.1C189.8,85.9,207.3,78,226.7,78c19.3,0,36.8,7.8,49.5,20.5l-18.8,18.9c-7.8-7.8-18.7-12.7-30.7-12.7
	c-12,0-22.8,4.9-30.7,12.7c-7.9,7.9-12.7,18.7-12.7,30.7c0,12,4.9,22.9,12.7,30.7c7.8,7.8,18.7,12.7,30.6,12.7
	c12,0,22.8-4.8,30.6-12.7L276.2,197.6z"/>
<path class="st2" d="M412.3,98.5c-1.9-1.9-4-3.8-6.1-5.5c-11.9-9.4-27-15-43.3-15c-16.4,0-31.4,5.6-43.3,15v-6.4V78V0h-26.7v86.6
	l0,0v58.9v4.9c0.6,18.4,8.4,35,20.5,47.1c1.9,1.9,4,3.8,6.1,5.5v-52.7c0-0.8-0.1-1.5-0.1-2.3c0-0.8,0-1.5,0.1-2.3
	c0.4-7.5,2.7-14.5,6.4-20.5c1.8-2.9,3.9-5.5,6.2-7.9c7.8-7.8,18.7-12.7,30.7-12.7c12,0,22.8,4.8,30.7,12.7
	c7.4,7.4,12.2,17.5,12.7,28.8c0,0.6,0,1.3,0,1.9c0,0.6,0,1.3,0,1.9v68.1h26.7V148C432.9,128.7,425,111.2,412.3,98.5z"/>
<path class="st2" d="M138.7,134.6h-110c1.1-3.3,2.5-6.5,4.3-9.4c1.8-2.9,3.9-5.5,6.2-7.9c7.8-7.8,18.7-12.7,30.7-12.7
	c12,0,22.8,4.8,30.7,12.7l18.8-18.9C106.8,85.9,89.3,78,70,78c-16.4,0-31.4,5.6-43.3,15c-2.2,1.7-4.2,3.5-6.2,5.5
	c-3.8,3.8-7.2,8.1-10.1,12.7c-4.4,7.1-7.5,15-9.2,23.4c-0.7,3.6-1.1,7.2-1.2,11v4.9c0.1,3.7,0.5,7.4,1.2,11h110
	c-1.1,3.4-2.6,6.5-4.4,9.5c-1.8,2.8-3.9,5.5-6.2,7.8c-7.8,7.8-18.7,12.7-30.6,12.7c-12,0-22.8-4.8-30.6-12.7l-12.7,12.7l-6.1,6.2
	c1.9,1.9,4,3.8,6.1,5.5c11.9,9.4,27,15,43.3,15c19.3,0,36.8-7.8,49.5-20.5c3.8-3.8,7.2-8,10-12.6c4.4-7.1,7.6-15,9.2-23.5
	c0.8-4.1,1.2-8.4,1.3-12.7v-1.4C140,143,139.5,138.8,138.7,134.6z M70,148.1l-0.2,0.1L70,148.1L70,148.1L70,148.1L70,148.1L70,148.1
	z"/>
<circle class="st1" cx="932.3" cy="13.3" r="13.3"/>
<path class="st1" d="M901.7,134.6h-110c1.1-3.3,2.5-6.5,4.3-9.4c1.8-2.9,3.9-5.5,6.2-7.9c7.8-7.8,18.7-12.7,30.7-12.7
	c12,0,22.8,4.8,30.7,12.7l18.8-18.9C869.8,85.9,852.3,78,833,78c-16.4,0-31.4,5.6-43.3,15c-2.2,1.7-4.2,3.5-6.2,5.5
	c-3.8,3.8-7.2,8.1-10.1,12.7c-4.4,7.1-7.5,15-9.2,23.4c-0.7,3.6-1.1,7.2-1.2,11v4.9c0.1,3.7,0.5,7.4,1.2,11h110
	c-1.1,3.4-2.6,6.5-4.4,9.5c-1.8,2.8-3.9,5.5-6.2,7.8c-7.8,7.8-18.7,12.7-30.6,12.7c-12,0-22.8-4.8-30.6-12.7l-12.7,12.7l-6.1,6.2
	c1.9,1.9,4,3.8,6.1,5.5c11.9,9.4,27,15,43.3,15c19.3,0,36.8-7.8,49.5-20.5c3.8-3.8,7.2-8,10-12.6c4.4-7.1,7.6-15,9.2-23.5
	c0.8-4.1,1.2-8.4,1.3-12.7v-1.4C903,143,902.5,138.8,901.7,134.6z M833,148.1l-0.2,0.1L833,148.1L833,148.1L833,148.1L833,148.1
	L833,148.1z"/>
<path class="st2" d="M-1377,1118v93.2c0,0-0.1,0-0.1-0.1c-11.9-9.4-27-15-43.4-15c-19.3,0-36.8,7.8-49.4,20.4
	c-3.8,3.8-7.2,8.1-10.1,12.7c-6.3,10.1-10,21.9-10.5,34.5v4.8c0.4,12.6,4.2,24.4,10.5,34.4c2.9,4.6,6.2,8.9,10.1,12.7
	c12.7,12.6,30.2,20.5,49.5,20.5c16.4,0,31.4-5.6,43.4-15c0,0,0.1,0,0.1-0.1c2.1-1.7,4.1-3.5,6-5.4c3.8-3.8,7.2-8,10-12.6
	c6.5-10.5,10.4-22.9,10.5-36.2v-17.3h0V1196h0l0,0h0.2v-78H-1377z M-1420.5,1309.4c-12,0-22.8-4.8-30.6-12.7c-2.4-2.4-4.5-5-6.2-7.8
	c-4.1-6.6-6.5-14.5-6.5-22.9c0-8.4,2.4-16.2,6.5-22.8c1.8-2.9,3.9-5.5,6.2-7.9c7.8-7.8,18.7-12.7,30.7-12.7c12,0,22.8,4.8,30.7,12.7
	c2.4,2.4,4.5,5,6.3,7.9c3.8,6.2,6.2,13.5,6.4,21.3c0,0.5,0,1,0,1.5c0,0.5,0,1,0,1.5c-0.3,7.8-2.6,15.1-6.5,21.4
	c-1.8,2.8-3.9,5.5-6.2,7.8C-1397.7,1304.6-1408.5,1309.4-1420.5,1309.4z"/>
<rect x="-1883.4" y="2284.1" class="st2" width="26.5" height="139.6"/>
<path class="st2" d="M-690.9,1229.1c-2.9-4.6-6.3-8.9-10.1-12.8c-1.9-1.9-4-3.7-6.1-5.4c-11.9-9.4-27-15-43.4-15
	c-16.4,0-31.4,5.6-43.3,15c-2.2,1.7-4.2,3.5-6.2,5.5c-3.8,3.8-7.2,8.1-10.1,12.7c-6.2,10.1-10,21.8-10.4,34.4v5
	c0.6,18.4,8.4,35,20.5,47.1c1.9,1.9,4,3.8,6.1,5.5v-52.8c0-0.8-0.1-1.5-0.1-2.3s0-1.5,0.1-2.3c0.4-7.5,2.7-14.5,6.4-20.5
	c1.8-2.9,3.9-5.5,6.2-7.9c7.8-7.8,18.7-12.7,30.7-12.7c12,0,22.8,4.8,30.7,12.7c2.4,2.4,4.5,5,6.3,7.9c3.8,6.2,6.2,13.5,6.4,21.3
	c0,0.5,0,1,0,1.5c0,0.5,0,1,0,1.5v68.6h26.7v-70.8C-680.6,1252-684.4,1239.6-690.9,1229.1z"/>
<g>
	<g>
		<path class="st2" d="M-1195,1252.6c-6.3-32.2-34.7-56.6-68.7-56.6c-19.3,0-36.8,7.8-49.5,20.5c-9.7,9.7-16.5,22.1-19.2,36.1
			c-0.7,3.6-1.1,7.2-1.2,11v4.9c0.1,3.7,0.5,7.4,1.2,11c6.3,32.3,34.7,56.6,68.7,56.6c19.3,0,36.8-7.8,49.5-20.5l-18.8-18.9
			c-7.8,7.8-18.7,12.7-30.6,12.7c-19.3,0-35.6-12.6-41.3-30h110c0.8-4.1,1.2-8.4,1.3-12.7v-1.4
			C-1193.7,1261-1194.2,1256.8-1195,1252.6z M-1305,1252.6c2.1-6.6,5.8-12.5,10.6-17.2c7.8-7.8,18.7-12.7,30.7-12.7
			c19.3,0,35.6,12.6,41.3,29.9H-1305z"/>
	</g>
</g>
<path class="st2" d="M-847.6,1229.1c-2.9-4.6-6.3-8.9-10.1-12.8c-1.9-1.9-4-3.7-6.1-5.4c-11.9-9.4-27-15-43.4-15
	c-16.4,0-31.4,5.6-43.3,15c-2.2,1.7-4.2,3.5-6.2,5.5c-3.8,3.8-7.2,8.1-10.1,12.7c-5.3,8.6-8.8,18.4-10,29c-0.2,1.8-0.3,3.6-0.4,5.4
	v4.9c0.4,12.6,4.2,24.4,10.5,34.4c2.9,4.6,6.2,8.9,10.1,12.7c1.9,1.9,4,3.8,6.1,5.5c11.9,9.4,27,15,43.3,15c16.4,0,31.4-5.6,43.4-15
	c2.1-1.7,4.2-3.5,6.1-5.4c3.8-3.8,7.2-8,10-12.6c6.5-10.5,10.4-22.9,10.5-36.2v-1.4C-837.3,1252-841.1,1239.6-847.6,1229.1z
	 M-907.2,1309.3c-12,0-22.8-4.8-30.6-12.7c-2.4-2.4-4.5-5-6.2-7.8c-3.8-6-6.1-13.1-6.5-20.6c0-0.8-0.1-1.5-0.1-2.3s0-1.5,0.1-2.3
	c0.4-7.5,2.7-14.5,6.4-20.5c1.8-2.9,3.9-5.5,6.2-7.9c7.8-7.8,18.7-12.7,30.7-12.7c12,0,22.8,4.8,30.7,12.7c2.4,2.4,4.5,5,6.3,7.9
	c3.8,6.2,6.2,13.5,6.4,21.3c0,0.5,0,1,0,1.5c0,0.5,0,1,0,1.5c-0.3,7.8-2.6,15.1-6.5,21.4c-1.8,2.8-3.9,5.5-6.2,7.8
	C-884.4,1304.4-895.2,1309.3-907.2,1309.3z"/>
<path class="st2" d="M-837.2,1385.4c0,13.5-3.8,26.2-10.5,36.9c-2.9,4.6-6.2,8.8-10,12.6c-1.9,1.9-4,3.7-6.1,5.4
	c-11.9,9.4-27,15-43.4,15c-16.4,0-31.4-5.6-43.3-15c-2.2-1.7-4.2-3.5-6.1-5.5l6.1-6.2l12.7-12.7c7.8,7.8,18.7,12.7,30.6,12.7
	c12,0,22.8-4.8,30.6-12.7c2.4-2.4,4.4-5,6.2-7.8c3.9-6.2,6.2-13.6,6.5-21.4c0-0.5,0-1,0-1.5c0-0.5,0-1,0-1.5
	c-0.3-7.8-2.6-15.1-6.4-21.3c-1.8-2.9-3.9-5.5-6.3-7.9l12.7-12.7l6.1-6.1c3.8,3.8,7.2,8.1,10.1,12.8
	C-841,1359.3-837.2,1371.9-837.2,1385.4z"/>
<path class="st0" d="M-1663.8,1315.6c-12.7,12.7-30.2,20.5-49.5,20.5c-19.3,0-36.8-7.8-49.5-20.5c-12.2-12.1-19.9-28.7-20.5-47.1
	v-4.9c0.6-18.4,8.3-35,20.5-47.1c12.7-12.7,30.2-20.5,49.5-20.5c19.3,0,36.8,7.8,49.5,20.5l-18.8,18.9c-7.8-7.8-18.7-12.7-30.7-12.7
	c-12,0-22.8,4.9-30.7,12.7c-7.9,7.9-12.7,18.7-12.7,30.7c0,12,4.9,22.9,12.7,30.7c7.8,7.8,18.7,12.7,30.6,12.7
	c12,0,22.8-4.8,30.6-12.7L-1663.8,1315.6z"/>
<path class="st0" d="M-1527.7,1216.5c-1.9-1.9-4-3.8-6.1-5.5c-11.9-9.4-27-15-43.3-15c-16.4,0-31.4,5.6-43.3,15v-6.4v-8.7v-78h-26.7
	v86.6l0,0v58.9v4.9c0.6,18.4,8.4,35,20.5,47.1c1.9,1.9,4,3.8,6.1,5.5v-52.7c0-0.8-0.1-1.5-0.1-2.3s0-1.5,0.1-2.3
	c0.4-7.5,2.7-14.5,6.4-20.5c1.8-2.9,3.9-5.5,6.2-7.9c7.8-7.8,18.7-12.7,30.7-12.7c12,0,22.8,4.8,30.7,12.7
	c7.4,7.4,12.2,17.5,12.7,28.8c0,0.6,0,1.3,0,1.9c0,0.6,0,1.3,0,1.9v68.1h26.7V1266C-1507.1,1246.7-1515,1229.2-1527.7,1216.5z"/>
<path class="st0" d="M-1801.3,1252.6h-110c1.1-3.3,2.5-6.5,4.3-9.4c1.8-2.9,3.9-5.5,6.2-7.9c7.8-7.8,18.7-12.7,30.7-12.7
	c12,0,22.8,4.8,30.7,12.7l18.8-18.9c-12.7-12.6-30.2-20.5-49.5-20.5c-16.4,0-31.4,5.6-43.3,15c-2.2,1.7-4.2,3.5-6.2,5.5
	c-3.8,3.8-7.2,8.1-10.1,12.7c-4.4,7.1-7.5,15-9.2,23.4c-0.7,3.6-1.1,7.2-1.2,11v4.9c0.1,3.7,0.5,7.4,1.2,11h110
	c-1.1,3.4-2.6,6.5-4.4,9.5c-1.8,2.8-3.9,5.5-6.2,7.8c-7.8,7.8-18.7,12.7-30.6,12.7c-12,0-22.8-4.8-30.6-12.7l-12.7,12.7l-6.1,6.2
	c1.9,1.9,4,3.8,6.1,5.5c11.9,9.4,27,15,43.3,15c19.3,0,36.8-7.8,49.5-20.5c3.8-3.8,7.2-8,10-12.6c4.4-7.1,7.6-15,9.2-23.5
	c0.8-4.1,1.2-8.4,1.3-12.7v-1.4C-1800,1261-1800.5,1256.8-1801.3,1252.6z M-1870,1266.1l-0.2,0.1L-1870,1266.1L-1870,1266.1
	L-1870,1266.1L-1870,1266.1L-1870,1266.1z"/>
<circle class="st2" cx="-1007.7" cy="1131.3" r="13.3"/>
<path class="st2" d="M-1038.3,1252.6h-110c1.1-3.3,2.5-6.5,4.3-9.4c1.8-2.9,3.9-5.5,6.2-7.9c7.8-7.8,18.7-12.7,30.7-12.7
	c12,0,22.8,4.8,30.7,12.7l18.8-18.9c-12.7-12.6-30.2-20.5-49.5-20.5c-16.4,0-31.4,5.6-43.3,15c-2.2,1.7-4.2,3.5-6.2,5.5
	c-3.8,3.8-7.2,8.1-10.1,12.7c-4.4,7.1-7.5,15-9.2,23.4c-0.7,3.6-1.1,7.2-1.2,11v4.9c0.1,3.7,0.5,7.4,1.2,11h110
	c-1.1,3.4-2.6,6.5-4.4,9.5c-1.8,2.8-3.9,5.5-6.2,7.8c-7.8,7.8-18.7,12.7-30.6,12.7c-12,0-22.8-4.8-30.6-12.7l-12.7,12.7l-6.1,6.2
	c1.9,1.9,4,3.8,6.1,5.5c11.9,9.4,27,15,43.3,15c19.3,0,36.8-7.8,49.5-20.5c3.8-3.8,7.2-8,10-12.6c4.4-7.1,7.6-15,9.2-23.5
	c0.8-4.1,1.2-8.4,1.3-12.7v-1.4C-1037,1261-1037.5,1256.8-1038.3,1252.6z M-1107,1266.1l-0.2,0.1L-1107,1266.1L-1107,1266.1
	L-1107,1266.1L-1107,1266.1L-1107,1266.1z"/>
<path class="st1" d="M-1377,0v93.2c0,0-0.1,0-0.1-0.1c-11.9-9.4-27-15-43.4-15c-19.3,0-36.8,7.8-49.4,20.4
	c-3.8,3.8-7.2,8.1-10.1,12.7c-6.3,10.1-10,21.9-10.5,34.5v4.8c0.4,12.6,4.2,24.4,10.5,34.4c2.9,4.6,6.2,8.9,10.1,12.7
	c12.7,12.6,30.2,20.5,49.5,20.5c16.4,0,31.4-5.6,43.4-15c0,0,0.1,0,0.1-0.1c2.1-1.7,4.1-3.5,6-5.4c3.8-3.8,7.2-8,10-12.6
	c6.5-10.5,10.4-22.9,10.5-36.2v-17.3h0V78h0l0,0h0.2V0H-1377z M-1420.5,191.4c-12,0-22.8-4.8-30.6-12.7c-2.4-2.4-4.5-5-6.2-7.8
	c-4.1-6.6-6.5-14.5-6.5-22.9c0-8.4,2.4-16.2,6.5-22.8c1.8-2.9,3.9-5.5,6.2-7.9c7.8-7.8,18.7-12.7,30.7-12.7c12,0,22.8,4.8,30.7,12.7
	c2.4,2.4,4.5,5,6.3,7.9c3.8,6.2,6.2,13.5,6.4,21.3c0,0.5,0,1,0,1.5c0,0.5,0,1,0,1.5c-0.3,7.8-2.6,15.1-6.5,21.4
	c-1.8,2.8-3.9,5.5-6.2,7.8C-1397.7,186.6-1408.5,191.4-1420.5,191.4z"/>
<rect x="-1020.3" y="78.5" class="st1" width="26.5" height="139.6"/>
<path class="st1" d="M-690.9,111.1c-2.9-4.6-6.3-8.9-10.1-12.8c-1.9-1.9-4-3.7-6.1-5.4c-11.9-9.4-27-15-43.4-15
	c-16.4,0-31.4,5.6-43.3,15c-2.2,1.7-4.2,3.5-6.2,5.5c-3.8,3.8-7.2,8.1-10.1,12.7c-6.2,10.1-10,21.8-10.4,34.4v5
	c0.6,18.4,8.4,35,20.5,47.1c1.9,1.9,4,3.8,6.1,5.5v-52.8c0-0.8-0.1-1.5-0.1-2.3s0-1.5,0.1-2.3c0.4-7.5,2.7-14.5,6.4-20.5
	c1.8-2.9,3.9-5.5,6.2-7.9c7.8-7.8,18.7-12.7,30.7-12.7c12,0,22.8,4.8,30.7,12.7c2.4,2.4,4.5,5,6.3,7.9c3.8,6.2,6.2,13.5,6.4,21.3
	c0,0.5,0,1,0,1.5s0,1,0,1.5V218h26.7v-70.8C-680.6,134-684.4,121.6-690.9,111.1z"/>
<g>
	<g>
		<path class="st1" d="M-1195,134.6c-6.3-32.2-34.7-56.6-68.7-56.6c-19.3,0-36.8,7.8-49.5,20.5c-9.7,9.7-16.5,22.1-19.2,36.1
			c-0.7,3.6-1.1,7.2-1.2,11v4.9c0.1,3.7,0.5,7.4,1.2,11c6.3,32.3,34.7,56.6,68.7,56.6c19.3,0,36.8-7.8,49.5-20.5l-18.8-18.9
			c-7.8,7.8-18.7,12.7-30.6,12.7c-19.3,0-35.6-12.6-41.3-30h110c0.8-4.1,1.2-8.4,1.3-12.7v-1.4C-1193.7,143-1194.2,138.8-1195,134.6
			z M-1305,134.6c2.1-6.6,5.8-12.5,10.6-17.2c7.8-7.8,18.7-12.7,30.7-12.7c19.3,0,35.6,12.6,41.3,29.9H-1305z"/>
	</g>
</g>
<path class="st1" d="M-847.6,111.1c-2.9-4.6-6.3-8.9-10.1-12.8c-1.9-1.9-4-3.7-6.1-5.4c-11.9-9.4-27-15-43.4-15
	c-16.4,0-31.4,5.6-43.3,15c-2.2,1.7-4.2,3.5-6.2,5.5c-3.8,3.8-7.2,8.1-10.1,12.7c-5.3,8.6-8.8,18.4-10,29c-0.2,1.8-0.3,3.6-0.4,5.4
	v4.9c0.4,12.6,4.2,24.4,10.5,34.4c2.9,4.6,6.2,8.9,10.1,12.7c1.9,1.9,4,3.8,6.1,5.5c11.9,9.4,27,15,43.3,15c16.4,0,31.4-5.6,43.4-15
	c2.1-1.7,4.2-3.5,6.1-5.4c3.8-3.8,7.2-8,10-12.6c6.5-10.5,10.4-22.9,10.5-36.2v-1.4C-837.3,134-841.1,121.6-847.6,111.1z
	 M-907.2,191.3c-12,0-22.8-4.8-30.6-12.7c-2.4-2.4-4.5-5-6.2-7.8c-3.8-6-6.1-13.1-6.5-20.6c0-0.8-0.1-1.5-0.1-2.3
	c0-0.8,0-1.5,0.1-2.3c0.4-7.5,2.7-14.5,6.4-20.5c1.8-2.9,3.9-5.5,6.2-7.9c7.8-7.8,18.7-12.7,30.7-12.7c12,0,22.8,4.8,30.7,12.7
	c2.4,2.4,4.5,5,6.3,7.9c3.8,6.2,6.2,13.5,6.4,21.3c0,0.5,0,1,0,1.5s0,1,0,1.5c-0.3,7.8-2.6,15.1-6.5,21.4c-1.8,2.8-3.9,5.5-6.2,7.8
	C-884.4,186.4-895.2,191.3-907.2,191.3z"/>
<path class="st1" d="M-837.2,267.4c0,13.5-3.8,26.2-10.5,36.9c-2.9,4.6-6.2,8.8-10,12.6c-1.9,1.9-4,3.7-6.1,5.4
	c-11.9,9.4-27,15-43.4,15c-16.4,0-31.4-5.6-43.3-15c-2.2-1.7-4.2-3.5-6.1-5.5l6.1-6.2l12.7-12.7c7.8,7.8,18.7,12.7,30.6,12.7
	c12,0,22.8-4.8,30.6-12.7c2.4-2.4,4.4-5,6.2-7.8c3.9-6.2,6.2-13.6,6.5-21.4c0-0.5,0-1,0-1.5s0-1,0-1.5c-0.3-7.8-2.6-15.1-6.4-21.3
	c-1.8-2.9-3.9-5.5-6.3-7.9l12.7-12.7l6.1-6.1c3.8,3.8,7.2,8.1,10.1,12.8C-841,241.3-837.2,253.9-837.2,267.4z"/>
<path class="st0" d="M-1663.8,197.6c-12.7,12.7-30.2,20.5-49.5,20.5c-19.3,0-36.8-7.8-49.5-20.5c-12.2-12.1-19.9-28.7-20.5-47.1
	v-4.9c0.6-18.4,8.3-35,20.5-47.1c12.7-12.7,30.2-20.5,49.5-20.5c19.3,0,36.8,7.8,49.5,20.5l-18.8,18.9c-7.8-7.8-18.7-12.7-30.7-12.7
	c-12,0-22.8,4.9-30.7,12.7c-7.9,7.9-12.7,18.7-12.7,30.7c0,12,4.9,22.9,12.7,30.7c7.8,7.8,18.7,12.7,30.6,12.7
	c12,0,22.8-4.8,30.6-12.7L-1663.8,197.6z"/>
<path class="st0" d="M-1527.7,98.5c-1.9-1.9-4-3.8-6.1-5.5c-11.9-9.4-27-15-43.3-15c-16.4,0-31.4,5.6-43.3,15v-6.4V78V0h-26.7v86.6
	l0,0v58.9v4.9c0.6,18.4,8.4,35,20.5,47.1c1.9,1.9,4,3.8,6.1,5.5v-52.7c0-0.8-0.1-1.5-0.1-2.3c0-0.8,0-1.5,0.1-2.3
	c0.4-7.5,2.7-14.5,6.4-20.5c1.8-2.9,3.9-5.5,6.2-7.9c7.8-7.8,18.7-12.7,30.7-12.7c12,0,22.8,4.8,30.7,12.7
	c7.4,7.4,12.2,17.5,12.7,28.8c0,0.6,0,1.3,0,1.9c0,0.6,0,1.3,0,1.9v68.1h26.7V148C-1507.1,128.7-1515,111.2-1527.7,98.5z"/>
<path class="st0" d="M-1801.3,134.6h-110c1.1-3.3,2.5-6.5,4.3-9.4c1.8-2.9,3.9-5.5,6.2-7.9c7.8-7.8,18.7-12.7,30.7-12.7
	c12,0,22.8,4.8,30.7,12.7l18.8-18.9c-12.7-12.6-30.2-20.5-49.5-20.5c-16.4,0-31.4,5.6-43.3,15c-2.2,1.7-4.2,3.5-6.2,5.5
	c-3.8,3.8-7.2,8.1-10.1,12.7c-4.4,7.1-7.5,15-9.2,23.4c-0.7,3.6-1.1,7.2-1.2,11v4.9c0.1,3.7,0.5,7.4,1.2,11h110
	c-1.1,3.4-2.6,6.5-4.4,9.5c-1.8,2.8-3.9,5.5-6.2,7.8c-7.8,7.8-18.7,12.7-30.6,12.7c-12,0-22.8-4.8-30.6-12.7l-12.7,12.7l-6.1,6.2
	c1.9,1.9,4,3.8,6.1,5.5c11.9,9.4,27,15,43.3,15c19.3,0,36.8-7.8,49.5-20.5c3.8-3.8,7.2-8,10-12.6c4.4-7.1,7.6-15,9.2-23.5
	c0.8-4.1,1.2-8.4,1.3-12.7v-1.4C-1800,143-1800.5,138.8-1801.3,134.6z M-1870,148.1l-0.2,0.1L-1870,148.1L-1870,148.1L-1870,148.1
	L-1870,148.1L-1870,148.1z"/>
<circle class="st1" cx="-1007.7" cy="13.3" r="13.3"/>
<path class="st1" d="M-1038.3,134.6h-110c1.1-3.3,2.5-6.5,4.3-9.4c1.8-2.9,3.9-5.5,6.2-7.9c7.8-7.8,18.7-12.7,30.7-12.7
	c12,0,22.8,4.8,30.7,12.7l18.8-18.9c-12.7-12.6-30.2-20.5-49.5-20.5c-16.4,0-31.4,5.6-43.3,15c-2.2,1.7-4.2,3.5-6.2,5.5
	c-3.8,3.8-7.2,8.1-10.1,12.7c-4.4,7.1-7.5,15-9.2,23.4c-0.7,3.6-1.1,7.2-1.2,11v4.9c0.1,3.7,0.5,7.4,1.2,11h110
	c-1.1,3.4-2.6,6.5-4.4,9.5c-1.8,2.8-3.9,5.5-6.2,7.8c-7.8,7.8-18.7,12.7-30.6,12.7c-12,0-22.8-4.8-30.6-12.7l-12.7,12.7l-6.1,6.2
	c1.9,1.9,4,3.8,6.1,5.5c11.9,9.4,27,15,43.3,15c19.3,0,36.8-7.8,49.5-20.5c3.8-3.8,7.2-8,10-12.6c4.4-7.1,7.6-15,9.2-23.5
	c0.8-4.1,1.2-8.4,1.3-12.7v-1.4C-1037,143-1037.5,138.8-1038.3,134.6z M-1107,148.1l-0.2,0.1L-1107,148.1L-1107,148.1L-1107,148.1
	L-1107,148.1L-1107,148.1z"/>
<g>
	<path d="M562.9,1117.9v93.3c0,0-0.1,0-0.1-0.1c-11.9-9.4-27-15-43.4-15c-19.3,0-36.8,7.8-49.5,20.4c-3.8,3.8-7.2,8.1-10.1,12.7
		c-6.3,10.1-10,21.9-10.5,34.5v4.8c0.4,12.6,4.2,24.4,10.5,34.5c2.9,4.6,6.2,8.9,10.1,12.7c12.7,12.6,30.2,20.5,49.5,20.5
		c16.4,0,31.4-5.6,43.4-15c0,0,0.1,0,0.1-0.1c2.1-1.7,4.1-3.5,6-5.4c3.8-3.8,7.2-8,10-12.6c6.5-10.5,10.4-22.9,10.5-36.2v-17.3h0
		v-53.5h0l0,0h0.2v-78H562.9z M519.5,1309.4c-12,0-22.8-4.8-30.7-12.7c-2.4-2.4-4.5-5-6.2-7.8c-4.1-6.6-6.5-14.5-6.5-22.9
		c0-8.4,2.4-16.2,6.5-22.8c1.8-2.9,3.9-5.5,6.2-7.9c7.9-7.8,18.7-12.7,30.7-12.7c12,0,22.8,4.8,30.7,12.7c2.4,2.4,4.5,5,6.3,7.9
		c3.9,6.2,6.2,13.5,6.4,21.3c0,0.5,0,1,0,1.5c0,0.5,0,1,0,1.5c-0.3,7.8-2.6,15.2-6.5,21.4c-1.8,2.8-3.9,5.5-6.2,7.8
		C542.3,1304.6,531.4,1309.4,519.5,1309.4z"/>
</g>
<g>
	<rect x="919.8" y="1196.5" width="26.5" height="139.6"/>
</g>
<g>
	<path d="M1249.3,1229.1c-2.9-4.6-6.3-8.9-10.1-12.8c-1.9-1.9-4-3.7-6.1-5.4c-11.9-9.4-27-15-43.4-15c-16.4,0-31.4,5.6-43.3,15
		c-2.2,1.7-4.2,3.5-6.2,5.5c-3.8,3.8-7.2,8.1-10.1,12.7c-6.2,10.1-10,21.8-10.4,34.4v5c0.6,18.4,8.4,35,20.5,47.1
		c1.9,1.9,4,3.8,6.2,5.5v-52.9c0-0.8-0.1-1.5-0.1-2.3c0-0.8,0-1.5,0.1-2.3c0.4-7.5,2.7-14.5,6.4-20.5c1.8-2.9,3.9-5.5,6.2-7.9
		c7.9-7.8,18.7-12.7,30.7-12.7c12,0,22.8,4.8,30.7,12.7c2.4,2.4,4.5,5,6.3,7.9c3.9,6.2,6.2,13.5,6.4,21.3c0,0.5,0,1,0,1.5s0,1,0,1.5
		v68.6h26.7v-70.8C1259.6,1252,1255.8,1239.6,1249.3,1229.1z"/>
</g>
<g>
	<g>
		<g>
			<path d="M745.1,1252.6c-6.3-32.3-34.7-56.6-68.8-56.6c-19.3,0-36.8,7.8-49.5,20.5c-9.7,9.7-16.5,22.2-19.3,36.1
				c-0.7,3.6-1.1,7.2-1.2,11v4.9c0.1,3.7,0.6,7.4,1.2,11c6.3,32.3,34.7,56.6,68.8,56.6c19.3,0,36.8-7.8,49.5-20.5l-18.8-18.9
				c-7.9,7.8-18.7,12.7-30.7,12.7c-19.3,0-35.6-12.6-41.3-30h110.1c0.8-4.1,1.2-8.4,1.3-12.7v-1.4
				C746.3,1261,745.9,1256.7,745.1,1252.6z M635,1252.6c2.1-6.6,5.8-12.5,10.6-17.3c7.9-7.8,18.7-12.7,30.7-12.7
				c19.3,0,35.6,12.6,41.3,30H635z"/>
		</g>
	</g>
</g>
<g>
	<path d="M1092.6,1229.1c-2.9-4.6-6.3-8.9-10.1-12.8c-1.9-1.9-4-3.7-6.1-5.4c-11.9-9.4-27-15-43.4-15c-16.4,0-31.4,5.6-43.3,15
		c-2.2,1.7-4.2,3.5-6.2,5.5c-3.8,3.8-7.2,8.1-10.1,12.7c-5.3,8.6-8.8,18.4-10,29c-0.2,1.8-0.3,3.6-0.4,5.4v4.9
		c0.4,12.6,4.2,24.4,10.5,34.5c2.9,4.6,6.2,8.9,10.1,12.7c1.9,1.9,4,3.8,6.1,5.5c11.9,9.4,27,15,43.3,15c16.4,0,31.4-5.6,43.4-15
		c2.1-1.7,4.2-3.5,6.1-5.4c3.8-3.8,7.2-8,10-12.6c6.5-10.5,10.4-22.9,10.5-36.2v-1.4C1102.9,1251.9,1099.1,1239.6,1092.6,1229.1z
		 M1033,1309.3c-12,0-22.8-4.8-30.7-12.7c-2.4-2.4-4.5-5-6.2-7.8c-3.8-6-6.1-13.1-6.5-20.6c0-0.8-0.1-1.5-0.1-2.3
		c0-0.8,0-1.5,0.1-2.3c0.4-7.5,2.7-14.5,6.4-20.5c1.8-2.9,3.9-5.5,6.2-7.9c7.9-7.8,18.7-12.7,30.7-12.7c12,0,22.8,4.8,30.7,12.7
		c2.4,2.4,4.5,5,6.3,7.9c3.9,6.2,6.2,13.5,6.4,21.3c0,0.5,0,1,0,1.5s0,1,0,1.5c-0.3,7.8-2.6,15.2-6.5,21.4c-1.8,2.8-3.9,5.5-6.2,7.8
		C1055.8,1304.4,1044.9,1309.3,1033,1309.3z"/>
</g>
<g>
	<path d="M1103,1385.4c0,13.6-3.8,26.2-10.5,36.9c-2.9,4.6-6.2,8.8-10,12.6c-1.9,1.9-4,3.7-6.1,5.4c-11.9,9.4-27,15-43.4,15
		c-16.4,0-31.4-5.6-43.3-15c-2.2-1.7-4.2-3.5-6.1-5.5l6.1-6.2l12.7-12.7c7.9,7.8,18.7,12.7,30.7,12.7c12,0,22.8-4.8,30.7-12.7
		c2.4-2.4,4.4-5,6.2-7.8c3.9-6.3,6.2-13.6,6.5-21.4c0-0.5,0-1,0-1.5s0-1,0-1.5c-0.3-7.8-2.6-15.1-6.4-21.3c-1.8-2.9-3.9-5.5-6.3-7.9
		l12.7-12.7l6.1-6.1c3.8,3.8,7.2,8.1,10.1,12.8C1099.2,1359.3,1103,1371.9,1103,1385.4z"/>
</g>
<g>
	<path d="M276,1315.6c-12.7,12.7-30.2,20.5-49.5,20.5c-19.3,0-36.8-7.8-49.5-20.5c-12.2-12.1-19.9-28.7-20.5-47.1v-4.9
		c0.6-18.4,8.3-35,20.5-47.1c12.7-12.7,30.2-20.5,49.5-20.5c19.3,0,36.8,7.8,49.5,20.5l-18.8,18.9c-7.9-7.8-18.7-12.7-30.7-12.7
		c-12,0-22.8,4.9-30.7,12.7c-7.9,7.9-12.7,18.7-12.7,30.7c0,12,4.9,22.9,12.7,30.7c7.9,7.8,18.7,12.7,30.7,12.7
		c12,0,22.8-4.8,30.7-12.7L276,1315.6z"/>
</g>
<g>
	<path d="M412.2,1216.5c-1.9-1.9-4-3.8-6.1-5.5c-11.9-9.4-27-15-43.4-15c-16.4,0-31.4,5.6-43.3,15v-6.4v-8.7v-78h-26.7v86.7l0,0
		v58.9v4.9c0.6,18.4,8.4,35,20.5,47.1c1.9,1.9,4,3.8,6.1,5.5v-52.8c0-0.8-0.1-1.5-0.1-2.3c0-0.8,0-1.5,0.1-2.3
		c0.4-7.5,2.7-14.5,6.4-20.5c1.8-2.9,3.9-5.5,6.2-7.9c7.9-7.8,18.7-12.7,30.7-12.7c12,0,22.8,4.8,30.7,12.7
		c7.4,7.4,12.2,17.6,12.7,28.8c0,0.6,0,1.3,0,1.9c0,0.6,0,1.3,0,1.9v68.2h26.7V1266C432.8,1246.7,424.9,1229.1,412.2,1216.5z"/>
</g>
<g>
	<g>
		<path d="M119.3,1216.5l-18.8,18.9c-7.9-7.8-18.7-12.7-30.7-12.7c-12,0-22.8,4.9-30.7,12.7c-2.4,2.4-4.5,5-6.2,7.9
			c-1.8,2.9-3.3,6.1-4.4,9.4c-0.5,1.7-1,3.4-1.3,5.1l16.3,3.2l10.1,2l16.1,3.1l0,0l-16.1,3.2l-10.1,2l-16.3,3.2L1,1279.5
			c-0.7-3.6-1.1-7.2-1.2-11v-4.9c0.1-3.7,0.6-7.4,1.2-11c1.6-8.4,4.8-16.3,9.2-23.4c2.9-4.6,6.3-8.9,10.1-12.7
			c12.7-12.7,30.2-20.5,49.5-20.5C89.1,1196,106.6,1203.8,119.3,1216.5z"/>
	</g>
	<g>
		<path d="M139.8,1265.3v1.4c0,4.3-0.5,8.6-1.3,12.7h-0.1l0.1,0c-1.6,8.5-4.8,16.4-9.2,23.5c-2.9,4.6-6.2,8.8-10,12.6
			c-12.7,12.7-30.2,20.5-49.5,20.5c-19.3,0-36.8-7.8-49.5-20.5l18.8-18.9c7.9,7.8,18.7,12.7,30.7,12.7c12,0,22.8-4.8,30.7-12.7
			c2.4-2.4,4.4-5,6.2-7.8c1.8-2.9,3.3-6.1,4.4-9.5c0.5-1.7,1-3.4,1.3-5.1l-16.3-3.2l-10.1-2l-16.1-3.2l0.1-0.1h0l16-3.1l10.1-2
			l16.3-3.2l26.2-5.1C139.3,1256.7,139.8,1261,139.8,1265.3z"/>
	</g>
</g>
<g>
	<g>
		<path d="M138.5,1252.6h-110c1.1-3.3,2.5-6.5,4.4-9.4c1.8-2.9,3.9-5.5,6.2-7.9c7.9-7.8,18.7-12.7,30.7-12.7
			c12,0,22.8,4.8,30.7,12.7l18.8-18.9c-12.7-12.7-30.2-20.5-49.5-20.5c-16.4,0-31.4,5.6-43.3,15c-2.2,1.7-4.2,3.5-6.2,5.5
			c-3.8,3.8-7.2,8.1-10.1,12.7c-4.4,7.1-7.5,15-9.2,23.4c-0.7,3.6-1.1,7.2-1.2,11v4.9c0.1,3.7,0.6,7.4,1.2,11h110.1
			c-1.1,3.4-2.6,6.5-4.4,9.5c-1.8,2.8-3.9,5.5-6.2,7.8c-7.9,7.8-18.7,12.7-30.7,12.7c-12,0-22.8-4.8-30.7-12.7l-12.7,12.7l-6.1,6.2
			c1.9,1.9,4,3.8,6.1,5.5c11.9,9.4,27,15,43.3,15c19.3,0,36.8-7.8,49.5-20.5c3.8-3.8,7.2-8,10-12.6c4.4-7.1,7.6-15,9.2-23.5
			c0.8-4.1,1.2-8.4,1.3-12.7v-1.4C139.8,1261,139.3,1256.7,138.5,1252.6z M69.8,1266.1l-0.2,0.1L69.8,1266.1L69.8,1266.1
			L69.8,1266.1L69.8,1266.1L69.8,1266.1z"/>
	</g>
</g>
<g>
	<circle cx="932.5" cy="1131.3" r="13.3"/>
</g>
<g>
	<rect x="202.8" y="1371" width="49.3" height="49.3"/>
</g>
<g>
	<circle cx="363.8" cy="1395.7" r="25.4"/>
</g>
<g>
	<polygon points="70.6,1370.6 41.8,1420.7 99.5,1420.7 	"/>
</g>
<g>
	<g>
		<path d="M901.8,1252.6h-110c1.1-3.3,2.5-6.5,4.4-9.4c1.8-2.9,3.9-5.5,6.2-7.9c7.9-7.8,18.7-12.7,30.7-12.7
			c12,0,22.8,4.8,30.7,12.7l18.8-18.9c-12.7-12.7-30.2-20.5-49.5-20.5c-16.4,0-31.4,5.6-43.3,15c-2.2,1.7-4.2,3.5-6.2,5.5
			c-3.8,3.8-7.2,8.1-10.1,12.7c-4.4,7.1-7.5,15-9.2,23.4c-0.7,3.6-1.1,7.2-1.2,11v4.9c0.1,3.7,0.6,7.4,1.2,11h110.1
			c-1.1,3.4-2.6,6.5-4.4,9.5c-1.8,2.8-3.9,5.5-6.2,7.8c-7.9,7.8-18.7,12.7-30.7,12.7c-12,0-22.8-4.8-30.7-12.7l-12.7,12.7l-6.1,6.2
			c1.9,1.9,4,3.8,6.1,5.5c11.9,9.4,27,15,43.3,15c19.3,0,36.8-7.8,49.5-20.5c3.8-3.8,7.2-8,10-12.6c4.4-7.1,7.6-15,9.2-23.5
			c0.8-4.1,1.2-8.4,1.3-12.7v-1.4C903.1,1261,902.6,1256.7,901.8,1252.6z M833.1,1266.1l-0.2,0.1L833.1,1266.1L833.1,1266.1
			L833.1,1266.1L833.1,1266.1L833.1,1266.1z"/>
	</g>
</g>
<rect x="-2270.2" y="2319.7" class="st0" width="3860" height="3360"/>
<g>
	<path class="st1" d="M199.8,2885v93.2c0,0-0.1,0-0.1-0.1c-11.9-9.4-27-15-43.4-15c-19.3,0-36.8,7.8-49.4,20.4
		c-3.8,3.8-7.2,8.1-10.1,12.7c-6.3,10.1-10,21.9-10.5,34.5v4.8c0.4,12.6,4.2,24.4,10.5,34.4c2.9,4.6,6.2,8.9,10.1,12.7
		c12.7,12.6,30.2,20.5,49.5,20.5c16.4,0,31.4-5.6,43.4-15c0,0,0.1,0,0.1-0.1c2.1-1.7,4.1-3.5,6-5.4c3.8-3.8,7.2-8,10-12.6
		c6.5-10.5,10.4-22.9,10.5-36.2v-17.3h0V2963h0l0,0h0.2v-78H199.8z M156.4,3076.4c-12,0-22.8-4.8-30.6-12.7c-2.4-2.4-4.5-5-6.2-7.8
		c-4.1-6.6-6.5-14.5-6.5-22.9c0-8.4,2.4-16.2,6.5-22.8c1.8-2.9,3.9-5.5,6.2-7.9c7.8-7.8,18.7-12.7,30.7-12.7
		c12,0,22.8,4.8,30.7,12.7c2.4,2.4,4.5,5,6.3,7.9c3.8,6.2,6.2,13.5,6.4,21.3c0,0.5,0,1,0,1.5c0,0.5,0,1,0,1.5
		c-0.3,7.8-2.6,15.1-6.5,21.4c-1.8,2.8-3.9,5.5-6.2,7.8C179.2,3071.6,168.3,3076.4,156.4,3076.4z"/>
	<rect x="556.5" y="2963.5" class="st1" width="26.5" height="139.6"/>
	<path class="st1" d="M885.9,2996.1c-2.9-4.6-6.3-8.9-10.1-12.8c-1.9-1.9-4-3.7-6.1-5.4c-11.9-9.4-27-15-43.4-15
		c-16.4,0-31.4,5.6-43.3,15c-2.2,1.7-4.2,3.5-6.2,5.5c-3.8,3.8-7.2,8.1-10.1,12.7c-6.2,10.1-10,21.8-10.4,34.4v5
		c0.6,18.4,8.4,35,20.5,47.1c1.9,1.9,4,3.8,6.1,5.5v-52.8c0-0.8-0.1-1.5-0.1-2.3s0-1.5,0.1-2.3c0.4-7.5,2.7-14.5,6.4-20.5
		c1.8-2.9,3.9-5.5,6.2-7.9c7.8-7.8,18.7-12.7,30.7-12.7c12,0,22.8,4.8,30.7,12.7c2.4,2.4,4.5,5,6.3,7.9c3.8,6.2,6.2,13.5,6.4,21.3
		c0,0.5,0,1,0,1.5c0,0.5,0,1,0,1.5v68.6h26.7v-70.8C896.2,3019,892.4,3006.6,885.9,2996.1z"/>
	<g>
		<g>
			<path class="st1" d="M381.9,3019.6c-6.3-32.2-34.7-56.6-68.7-56.6c-19.3,0-36.8,7.8-49.5,20.5c-9.7,9.7-16.5,22.1-19.2,36.1
				c-0.7,3.6-1.1,7.2-1.2,11v4.9c0.1,3.7,0.5,7.4,1.2,11c6.3,32.3,34.7,56.6,68.7,56.6c19.3,0,36.8-7.8,49.5-20.5l-18.8-18.9
				c-7.8,7.8-18.7,12.7-30.6,12.7c-19.3,0-35.6-12.6-41.3-30h110c0.8-4.1,1.2-8.4,1.3-12.7v-1.4
				C383.1,3028,382.7,3023.8,381.9,3019.6z M271.9,3019.6c2.1-6.6,5.8-12.5,10.6-17.2c7.8-7.8,18.7-12.7,30.7-12.7
				c19.3,0,35.6,12.6,41.3,29.9H271.9z"/>
		</g>
	</g>
	<path class="st1" d="M729.2,2996.1c-2.9-4.6-6.3-8.9-10.1-12.8c-1.9-1.9-4-3.7-6.1-5.4c-11.9-9.4-27-15-43.4-15
		c-16.4,0-31.4,5.6-43.3,15c-2.2,1.7-4.2,3.5-6.2,5.5c-3.8,3.8-7.2,8.1-10.1,12.7c-5.3,8.6-8.8,18.4-10,28.9
		c-0.2,1.8-0.3,3.6-0.4,5.4v4.9c0.4,12.6,4.2,24.4,10.5,34.4c2.9,4.6,6.2,8.9,10.1,12.7c1.9,1.9,4,3.8,6.1,5.5
		c11.9,9.4,27,15,43.3,15c16.4,0,31.4-5.6,43.4-15c2.1-1.7,4.2-3.5,6.1-5.4c3.8-3.8,7.2-8,10-12.6c6.5-10.5,10.4-22.9,10.5-36.2
		v-1.4C739.5,3019,735.7,3006.6,729.2,2996.1z M669.7,3076.3c-12,0-22.8-4.8-30.6-12.7c-2.4-2.4-4.5-5-6.2-7.8
		c-3.8-6-6.1-13.1-6.5-20.6c0-0.8-0.1-1.5-0.1-2.3s0-1.5,0.1-2.3c0.4-7.5,2.7-14.5,6.4-20.5c1.8-2.9,3.9-5.5,6.2-7.9
		c7.8-7.8,18.7-12.7,30.7-12.7c12,0,22.8,4.8,30.7,12.7c2.4,2.4,4.5,5,6.3,7.9c3.8,6.2,6.2,13.5,6.4,21.3c0,0.5,0,1,0,1.5s0,1,0,1.5
		c-0.3,7.8-2.6,15.1-6.5,21.4c-1.8,2.8-3.9,5.5-6.2,7.8C692.5,3071.4,681.6,3076.3,669.7,3076.3z"/>
	<path class="st1" d="M739.7,3152.4c0,13.5-3.8,26.2-10.5,36.9c-2.9,4.6-6.2,8.8-10,12.6c-1.9,1.9-4,3.7-6.1,5.4
		c-11.9,9.4-27,15-43.4,15c-16.4,0-31.4-5.6-43.3-15c-2.2-1.7-4.2-3.5-6.1-5.5l6.1-6.2l12.7-12.7c7.8,7.8,18.7,12.7,30.6,12.7
		c12,0,22.8-4.8,30.6-12.7c2.4-2.4,4.4-5,6.2-7.8c3.9-6.2,6.2-13.6,6.5-21.4c0-0.5,0-1,0-1.5s0-1,0-1.5c-0.3-7.8-2.6-15.1-6.4-21.3
		c-1.8-2.9-3.9-5.5-6.3-7.9l12.7-12.7l6.1-6.1c3.8,3.8,7.2,8.1,10.1,12.8C735.9,3126.3,739.7,3138.9,739.7,3152.4z"/>
	<path class="st2" d="M-87,3082.6c-12.7,12.7-30.2,20.5-49.5,20.5c-19.3,0-36.8-7.8-49.5-20.5c-12.2-12.1-19.9-28.7-20.5-47.1v-4.9
		c0.6-18.4,8.3-35,20.5-47.1c12.7-12.7,30.2-20.5,49.5-20.5c19.3,0,36.8,7.8,49.5,20.5l-18.8,18.9c-7.8-7.8-18.7-12.7-30.7-12.7
		c-12,0-22.8,4.9-30.7,12.7c-7.9,7.9-12.7,18.7-12.7,30.7c0,12,4.9,22.9,12.7,30.7c7.8,7.8,18.7,12.7,30.6,12.7
		c12,0,22.8-4.8,30.6-12.7L-87,3082.6z"/>
	<path class="st2" d="M49.2,2983.5c-1.9-1.9-4-3.8-6.1-5.5c-11.9-9.4-27-15-43.3-15c-16.4,0-31.4,5.6-43.3,15v-6.4v-8.7v-78h-26.7
		v86.6l0,0v58.9v4.9c0.6,18.4,8.4,35,20.5,47.1c1.9,1.9,4,3.8,6.1,5.5v-52.7c0-0.8-0.1-1.5-0.1-2.3s0-1.5,0.1-2.3
		c0.4-7.5,2.7-14.5,6.4-20.5c1.8-2.9,3.9-5.5,6.2-7.9c7.8-7.8,18.7-12.7,30.7-12.7c12,0,22.8,4.8,30.7,12.7
		c7.4,7.4,12.2,17.5,12.7,28.8c0,0.6,0,1.3,0,1.9c0,0.6,0,1.3,0,1.9v68.1h26.7V3033C69.7,3013.7,61.9,2996.2,49.2,2983.5z"/>
	<path class="st2" d="M-224.4,3019.6h-110c1.1-3.3,2.5-6.5,4.3-9.4c1.8-2.9,3.9-5.5,6.2-7.9c7.8-7.8,18.7-12.7,30.7-12.7
		c12,0,22.8,4.8,30.7,12.7l18.8-18.9c-12.7-12.6-30.2-20.5-49.5-20.5c-16.4,0-31.4,5.6-43.3,15c-2.2,1.7-4.2,3.5-6.2,5.5
		c-3.8,3.8-7.2,8.1-10.1,12.7c-4.4,7.1-7.5,15-9.2,23.4c-0.7,3.6-1.1,7.2-1.2,11v4.9c0.1,3.7,0.5,7.4,1.2,11h110
		c-1.1,3.4-2.6,6.5-4.4,9.5c-1.8,2.8-3.9,5.5-6.2,7.8c-7.8,7.8-18.7,12.7-30.6,12.7c-12,0-22.8-4.8-30.6-12.7l-12.7,12.7l-6.1,6.2
		c1.9,1.9,4,3.8,6.1,5.5c11.9,9.4,27,15,43.3,15c19.3,0,36.8-7.8,49.5-20.5c3.8-3.8,7.2-8,10-12.6c4.4-7.1,7.6-15,9.2-23.5
		c0.8-4.1,1.2-8.4,1.3-12.7v-1.4C-223.2,3028-223.6,3023.8-224.4,3019.6z M-293.1,3033.1l-0.2,0.1L-293.1,3033.1L-293.1,3033.1
		L-293.1,3033.1L-293.1,3033.1L-293.1,3033.1z"/>
	<circle class="st1" cx="569.2" cy="2898.3" r="13.3"/>
	<path class="st1" d="M538.6,3019.6h-110c1.1-3.3,2.5-6.5,4.3-9.4c1.8-2.9,3.9-5.5,6.2-7.9c7.8-7.8,18.7-12.7,30.7-12.7
		c12,0,22.8,4.8,30.7,12.7l18.8-18.9c-12.7-12.6-30.2-20.5-49.5-20.5c-16.4,0-31.4,5.6-43.3,15c-2.2,1.7-4.2,3.5-6.2,5.5
		c-3.8,3.8-7.2,8.1-10.1,12.7c-4.4,7.1-7.5,15-9.2,23.4c-0.7,3.6-1.1,7.2-1.2,11v4.9c0.1,3.7,0.5,7.4,1.2,11h110
		c-1.1,3.4-2.6,6.5-4.4,9.5c-1.8,2.8-3.9,5.5-6.2,7.8c-7.8,7.8-18.7,12.7-30.6,12.7c-12,0-22.8-4.8-30.6-12.7l-12.7,12.7l-6.1,6.2
		c1.9,1.9,4,3.8,6.1,5.5c11.9,9.4,27,15,43.3,15c19.3,0,36.8-7.8,49.5-20.5c3.8-3.8,7.2-8,10-12.6c4.4-7.1,7.6-15,9.2-23.5
		c0.8-4.1,1.2-8.4,1.3-12.7v-1.4C539.8,3028,539.4,3023.8,538.6,3019.6z M469.8,3033.1l-0.2,0.1L469.8,3033.1L469.8,3033.1
		L469.8,3033.1L469.8,3033.1L469.8,3033.1z"/>
</g>
<g class="st3">
	<path class="st2" d="M-1557,2885v93.2c0,0-0.1,0-0.1-0.1c-11.9-9.4-27-15-43.4-15c-19.3,0-36.8,7.8-49.4,20.4
		c-3.8,3.8-7.2,8.1-10.1,12.7c-6.3,10.1-10,21.9-10.5,34.5v4.8c0.4,12.6,4.2,24.4,10.5,34.4c2.9,4.6,6.2,8.9,10.1,12.7
		c12.7,12.6,30.2,20.5,49.5,20.5c16.4,0,31.4-5.6,43.4-15c0,0,0.1,0,0.1-0.1c2.1-1.7,4.1-3.5,6-5.4c3.8-3.8,7.2-8,10-12.6
		c6.5-10.5,10.4-22.9,10.5-36.2v-17.3h0V2963h0l0,0h0.2v-78H-1557z M-1600.5,3076.4c-12,0-22.8-4.8-30.6-12.7
		c-2.4-2.4-4.5-5-6.2-7.8c-4.1-6.6-6.5-14.5-6.5-22.9c0-8.4,2.4-16.2,6.5-22.8c1.8-2.9,3.9-5.5,6.2-7.9c7.8-7.8,18.7-12.7,30.7-12.7
		c12,0,22.8,4.8,30.7,12.7c2.4,2.4,4.5,5,6.3,7.9c3.8,6.2,6.2,13.5,6.4,21.3c0,0.5,0,1,0,1.5c0,0.5,0,1,0,1.5
		c-0.3,7.8-2.6,15.1-6.5,21.4c-1.8,2.8-3.9,5.5-6.2,7.8C-1577.7,3071.6-1588.5,3076.4-1600.5,3076.4z"/>
	<rect x="-1200.3" y="2963.5" class="st2" width="26.5" height="139.6"/>
	<path class="st2" d="M-870.9,2996.1c-2.9-4.6-6.3-8.9-10.1-12.8c-1.9-1.9-4-3.7-6.1-5.4c-11.9-9.4-27-15-43.4-15
		c-16.4,0-31.4,5.6-43.3,15c-2.2,1.7-4.2,3.5-6.2,5.5c-3.8,3.8-7.2,8.1-10.1,12.7c-6.2,10.1-10,21.8-10.4,34.4v5
		c0.6,18.4,8.4,35,20.5,47.1c1.9,1.9,4,3.8,6.1,5.5v-52.8c0-0.8-0.1-1.5-0.1-2.3s0-1.5,0.1-2.3c0.4-7.5,2.7-14.5,6.4-20.5
		c1.8-2.9,3.9-5.5,6.2-7.9c7.8-7.8,18.7-12.7,30.7-12.7c12,0,22.8,4.8,30.7,12.7c2.4,2.4,4.5,5,6.3,7.9c3.8,6.2,6.2,13.5,6.4,21.3
		c0,0.5,0,1,0,1.5c0,0.5,0,1,0,1.5v68.6h26.7v-70.8C-860.6,3019-864.4,3006.6-870.9,2996.1z"/>
	<g>
		<g>
			<path class="st2" d="M-1375,3019.6c-6.3-32.2-34.7-56.6-68.7-56.6c-19.3,0-36.8,7.8-49.5,20.5c-9.7,9.7-16.5,22.1-19.2,36.1
				c-0.7,3.6-1.1,7.2-1.2,11v4.9c0.1,3.7,0.5,7.4,1.2,11c6.3,32.3,34.7,56.6,68.7,56.6c19.3,0,36.8-7.8,49.5-20.5l-18.8-18.9
				c-7.8,7.8-18.7,12.7-30.6,12.7c-19.3,0-35.6-12.6-41.3-30h110c0.8-4.1,1.2-8.4,1.3-12.7v-1.4
				C-1373.7,3028-1374.2,3023.8-1375,3019.6z M-1485,3019.6c2.1-6.6,5.8-12.5,10.6-17.2c7.8-7.8,18.7-12.7,30.7-12.7
				c19.3,0,35.6,12.6,41.3,29.9H-1485z"/>
		</g>
	</g>
	<path class="st2" d="M-1027.6,2996.1c-2.9-4.6-6.3-8.9-10.1-12.8c-1.9-1.9-4-3.7-6.1-5.4c-11.9-9.4-27-15-43.4-15
		c-16.4,0-31.4,5.6-43.3,15c-2.2,1.7-4.2,3.5-6.2,5.5c-3.8,3.8-7.2,8.1-10.1,12.7c-5.3,8.6-8.8,18.4-10,28.9
		c-0.2,1.8-0.3,3.6-0.4,5.4v4.9c0.4,12.6,4.2,24.4,10.5,34.4c2.9,4.6,6.2,8.9,10.1,12.7c1.9,1.9,4,3.8,6.1,5.5
		c11.9,9.4,27,15,43.3,15c16.4,0,31.4-5.6,43.4-15c2.1-1.7,4.2-3.5,6.1-5.4c3.8-3.8,7.2-8,10-12.6c6.5-10.5,10.4-22.9,10.5-36.2
		v-1.4C-1017.3,3019-1021.1,3006.6-1027.6,2996.1z M-1087.2,3076.3c-12,0-22.8-4.8-30.6-12.7c-2.4-2.4-4.5-5-6.2-7.8
		c-3.8-6-6.1-13.1-6.5-20.6c0-0.8-0.1-1.5-0.1-2.3s0-1.5,0.1-2.3c0.4-7.5,2.7-14.5,6.4-20.5c1.8-2.9,3.9-5.5,6.2-7.9
		c7.8-7.8,18.7-12.7,30.7-12.7c12,0,22.8,4.8,30.7,12.7c2.4,2.4,4.5,5,6.3,7.9c3.8,6.2,6.2,13.5,6.4,21.3c0,0.5,0,1,0,1.5s0,1,0,1.5
		c-0.3,7.8-2.6,15.1-6.5,21.4c-1.8,2.8-3.9,5.5-6.2,7.8C-1064.4,3071.4-1075.2,3076.3-1087.2,3076.3z"/>
	<path class="st2" d="M-1017.2,3152.4c0,13.5-3.8,26.2-10.5,36.9c-2.9,4.6-6.2,8.8-10,12.6c-1.9,1.9-4,3.7-6.1,5.4
		c-11.9,9.4-27,15-43.4,15c-16.4,0-31.4-5.6-43.3-15c-2.2-1.7-4.2-3.5-6.1-5.5l6.1-6.2l12.7-12.7c7.8,7.8,18.7,12.7,30.6,12.7
		c12,0,22.8-4.8,30.6-12.7c2.4-2.4,4.4-5,6.2-7.8c3.9-6.2,6.2-13.6,6.5-21.4c0-0.5,0-1,0-1.5s0-1,0-1.5c-0.3-7.8-2.6-15.1-6.4-21.3
		c-1.8-2.9-3.9-5.5-6.3-7.9l12.7-12.7l6.1-6.1c3.8,3.8,7.2,8.1,10.1,12.8C-1021,3126.3-1017.2,3138.9-1017.2,3152.4z"/>
	<circle class="st2" cx="-1187.7" cy="2898.3" r="13.3"/>
	<path class="st2" d="M-1218.3,3019.6h-110c1.1-3.3,2.5-6.5,4.3-9.4c1.8-2.9,3.9-5.5,6.2-7.9c7.8-7.8,18.7-12.7,30.7-12.7
		c12,0,22.8,4.8,30.7,12.7l18.8-18.9c-12.7-12.6-30.2-20.5-49.5-20.5c-16.4,0-31.4,5.6-43.3,15c-2.2,1.7-4.2,3.5-6.2,5.5
		c-3.8,3.8-7.2,8.1-10.1,12.7c-4.4,7.1-7.5,15-9.2,23.4c-0.7,3.6-1.1,7.2-1.2,11v4.9c0.1,3.7,0.5,7.4,1.2,11h110
		c-1.1,3.4-2.6,6.5-4.4,9.5c-1.8,2.8-3.9,5.5-6.2,7.8c-7.8,7.8-18.7,12.7-30.6,12.7c-12,0-22.8-4.8-30.6-12.7l-12.7,12.7l-6.1,6.2
		c1.9,1.9,4,3.8,6.1,5.5c11.9,9.4,27,15,43.3,15c19.3,0,36.8-7.8,49.5-20.5c3.8-3.8,7.2-8,10-12.6c4.4-7.1,7.6-15,9.2-23.5
		c0.8-4.1,1.2-8.4,1.3-12.7v-1.4C-1217,3028-1217.5,3023.8-1218.3,3019.6z M-1287,3033.1l-0.2,0.1L-1287,3033.1L-1287,3033.1
		L-1287,3033.1L-1287,3033.1L-1287,3033.1z"/>
</g>
<g class="st3">
	<path class="st2" d="M-582.6,3082.6c1.9,1.9,4,3.8,6.1,5.5c11.9,9.4,27,15,43.3,15c16.4,0,31.4-5.6,43.3-15v6.4v8.7v78h26.7v-86.6
		l0,0v-58.9v-4.9c-0.6-18.4-8.4-35-20.5-47.1c-1.9-1.9-4-3.8-6.1-5.5v52.7c0,0.8,0.1,1.5,0.1,2.3s0,1.5-0.1,2.3
		c-0.4,7.5-2.7,14.5-6.4,20.5c-1.8,2.9-3.9,5.5-6.2,7.9c-7.8,7.8-18.7,12.7-30.7,12.7c-12,0-22.8-4.8-30.7-12.7
		c-7.4-7.4-12.2-17.5-12.7-28.8c0-0.6,0-1.3,0-1.9c0-0.6,0-1.3,0-1.9V2963h-26.7v70.1C-603.2,3052.4-595.3,3069.9-582.6,3082.6z"/>
	<path class="st2" d="M-760.5,2885v78h0.2l0,0h0v53.5h0v17.3c0.1,13.3,4,25.7,10.5,36.2c2.9,4.6,6.2,8.8,10,12.6
		c1.9,1.9,3.9,3.7,6,5.4c0,0,0.1,0,0.1,0.1c11.9,9.4,27,15,43.4,15c19.3,0,36.8-7.8,49.5-20.5c3.8-3.8,7.2-8.1,10.1-12.7
		c6.2-10.1,10-21.8,10.5-34.4v-4.8c-0.4-12.6-4.2-24.4-10.5-34.5c-2.9-4.6-6.3-8.9-10.1-12.7c-12.7-12.6-30.1-20.4-49.4-20.4
		c-16.4,0-31.4,5.6-43.4,15c0,0-0.1,0-0.1,0.1V2885H-760.5z M-721,3063.7c-2.4-2.4-4.4-5-6.2-7.8c-3.9-6.2-6.2-13.6-6.5-21.4
		c0-0.5,0-1,0-1.5c0-0.5,0-1,0-1.5c0.3-7.8,2.6-15.1,6.4-21.3c1.8-2.9,3.9-5.5,6.3-7.9c7.8-7.8,18.7-12.7,30.7-12.7
		c12,0,22.8,4.9,30.7,12.7c2.4,2.4,4.5,5,6.2,7.9c4.1,6.6,6.5,14.4,6.5,22.8c0,8.4-2.4,16.2-6.5,22.9c-1.8,2.8-3.9,5.5-6.2,7.8
		c-7.8,7.8-18.7,12.7-30.6,12.7C-702.3,3076.4-713.2,3071.6-721,3063.7z"/>
</g>
<g>
	<path class="st1" d="M199.8,3640v93.2c0,0-0.1,0-0.1-0.1c-11.9-9.4-27-15-43.4-15c-19.3,0-36.8,7.8-49.4,20.4
		c-3.8,3.8-7.2,8.1-10.1,12.7c-6.3,10.1-10,21.9-10.5,34.5v4.8c0.4,12.6,4.2,24.4,10.5,34.4c2.9,4.6,6.2,8.9,10.1,12.7
		c12.7,12.6,30.2,20.5,49.5,20.5c16.4,0,31.4-5.6,43.4-15c0,0,0.1,0,0.1-0.1c2.1-1.7,4.1-3.5,6-5.4c3.8-3.8,7.2-8,10-12.6
		c6.5-10.5,10.4-22.9,10.5-36.2v-17.3h0V3718h0l0,0h0.2v-78H199.8z M156.4,3831.4c-12,0-22.8-4.8-30.6-12.7c-2.4-2.4-4.5-5-6.2-7.8
		c-4.1-6.6-6.5-14.5-6.5-22.9c0-8.4,2.4-16.2,6.5-22.8c1.8-2.9,3.9-5.5,6.2-7.9c7.8-7.8,18.7-12.7,30.7-12.7
		c12,0,22.8,4.8,30.7,12.7c2.4,2.4,4.5,5,6.3,7.9c3.8,6.2,6.2,13.5,6.4,21.3c0,0.5,0,1,0,1.5c0,0.5,0,1,0,1.5
		c-0.3,7.8-2.6,15.1-6.5,21.4c-1.8,2.8-3.9,5.5-6.2,7.8C179.2,3826.6,168.3,3831.4,156.4,3831.4z"/>
	<rect x="556.5" y="3718.5" class="st1" width="26.5" height="139.6"/>
	<path class="st1" d="M885.9,3751.1c-2.9-4.6-6.3-8.9-10.1-12.8c-1.9-1.9-4-3.7-6.1-5.4c-11.9-9.4-27-15-43.4-15
		c-16.4,0-31.4,5.6-43.3,15c-2.2,1.7-4.2,3.5-6.2,5.5c-3.8,3.8-7.2,8.1-10.1,12.7c-6.2,10.1-10,21.8-10.4,34.4v5
		c0.6,18.4,8.4,35,20.5,47.1c1.9,1.9,4,3.8,6.1,5.5v-52.8c0-0.8-0.1-1.5-0.1-2.3s0-1.5,0.1-2.3c0.4-7.5,2.7-14.5,6.4-20.5
		c1.8-2.9,3.9-5.5,6.2-7.9c7.8-7.8,18.7-12.7,30.7-12.7c12,0,22.8,4.8,30.7,12.7c2.4,2.4,4.5,5,6.3,7.9c3.8,6.2,6.2,13.5,6.4,21.3
		c0,0.5,0,1,0,1.5c0,0.5,0,1,0,1.5v68.6h26.7v-70.8C896.2,3774,892.4,3761.6,885.9,3751.1z"/>
	<g>
		<g>
			<path class="st1" d="M381.9,3774.6c-6.3-32.2-34.7-56.6-68.7-56.6c-19.3,0-36.8,7.8-49.5,20.5c-9.7,9.7-16.5,22.1-19.2,36.1
				c-0.7,3.6-1.1,7.2-1.2,11v4.9c0.1,3.7,0.5,7.4,1.2,11c6.3,32.3,34.7,56.6,68.7,56.6c19.3,0,36.8-7.8,49.5-20.5l-18.8-18.9
				c-7.8,7.8-18.7,12.7-30.6,12.7c-19.3,0-35.6-12.6-41.3-30h110c0.8-4.1,1.2-8.4,1.3-12.7v-1.4
				C383.1,3783,382.7,3778.8,381.9,3774.6z M271.9,3774.6c2.1-6.6,5.8-12.5,10.6-17.2c7.8-7.8,18.7-12.7,30.7-12.7
				c19.3,0,35.6,12.6,41.3,29.9H271.9z"/>
		</g>
	</g>
	<path class="st1" d="M729.2,3751.1c-2.9-4.6-6.3-8.9-10.1-12.8c-1.9-1.9-4-3.7-6.1-5.4c-11.9-9.4-27-15-43.4-15
		c-16.4,0-31.4,5.6-43.3,15c-2.2,1.7-4.2,3.5-6.2,5.5c-3.8,3.8-7.2,8.1-10.1,12.7c-5.3,8.6-8.8,18.4-10,28.9
		c-0.2,1.8-0.3,3.6-0.4,5.4v4.9c0.4,12.6,4.2,24.4,10.5,34.4c2.9,4.6,6.2,8.9,10.1,12.7c1.9,1.9,4,3.8,6.1,5.5
		c11.9,9.4,27,15,43.3,15c16.4,0,31.4-5.6,43.4-15c2.1-1.7,4.2-3.5,6.1-5.4c3.8-3.8,7.2-8,10-12.6c6.5-10.5,10.4-22.9,10.5-36.2
		v-1.4C739.5,3774,735.7,3761.6,729.2,3751.1z M669.7,3831.3c-12,0-22.8-4.8-30.6-12.7c-2.4-2.4-4.5-5-6.2-7.8
		c-3.8-6-6.1-13.1-6.5-20.6c0-0.8-0.1-1.5-0.1-2.3s0-1.5,0.1-2.3c0.4-7.5,2.7-14.5,6.4-20.5c1.8-2.9,3.9-5.5,6.2-7.9
		c7.8-7.8,18.7-12.7,30.7-12.7c12,0,22.8,4.8,30.7,12.7c2.4,2.4,4.5,5,6.3,7.9c3.8,6.2,6.2,13.5,6.4,21.3c0,0.5,0,1,0,1.5s0,1,0,1.5
		c-0.3,7.8-2.6,15.1-6.5,21.4c-1.8,2.8-3.9,5.5-6.2,7.8C692.5,3826.4,681.6,3831.3,669.7,3831.3z"/>
	<path class="st1" d="M739.7,3907.4c0,13.5-3.8,26.2-10.5,36.9c-2.9,4.6-6.2,8.8-10,12.6c-1.9,1.9-4,3.7-6.1,5.4
		c-11.9,9.4-27,15-43.4,15c-16.4,0-31.4-5.6-43.3-15c-2.2-1.7-4.2-3.5-6.1-5.5l6.1-6.2l12.7-12.7c7.8,7.8,18.7,12.7,30.6,12.7
		c12,0,22.8-4.8,30.6-12.7c2.4-2.4,4.4-5,6.2-7.8c3.9-6.2,6.2-13.6,6.5-21.4c0-0.5,0-1,0-1.5s0-1,0-1.5c-0.3-7.8-2.6-15.1-6.4-21.3
		c-1.8-2.9-3.9-5.5-6.3-7.9l12.7-12.7l6.1-6.1c3.8,3.8,7.2,8.1,10.1,12.8C735.9,3881.3,739.7,3893.9,739.7,3907.4z"/>
	<path class="st2" d="M-87,3837.6c-12.7,12.7-30.2,20.5-49.5,20.5c-19.3,0-36.8-7.8-49.5-20.5c-12.2-12.1-19.9-28.7-20.5-47.1v-4.9
		c0.6-18.4,8.3-35,20.5-47.1c12.7-12.7,30.2-20.5,49.5-20.5c19.3,0,36.8,7.8,49.5,20.5l-18.8,18.9c-7.8-7.8-18.7-12.7-30.7-12.7
		c-12,0-22.8,4.9-30.7,12.7c-7.9,7.9-12.7,18.7-12.7,30.7c0,12,4.9,22.9,12.7,30.7c7.8,7.8,18.7,12.7,30.6,12.7
		c12,0,22.8-4.8,30.6-12.7L-87,3837.6z"/>
	<path class="st2" d="M49.2,3738.5c-1.9-1.9-4-3.8-6.1-5.5c-11.9-9.4-27-15-43.3-15c-16.4,0-31.4,5.6-43.3,15v-6.4v-8.7v-78h-26.7
		v86.6l0,0v58.9v4.9c0.6,18.4,8.4,35,20.5,47.1c1.9,1.9,4,3.8,6.1,5.5v-52.7c0-0.8-0.1-1.5-0.1-2.3s0-1.5,0.1-2.3
		c0.4-7.5,2.7-14.5,6.4-20.5c1.8-2.9,3.9-5.5,6.2-7.9c7.8-7.8,18.7-12.7,30.7-12.7c12,0,22.8,4.8,30.7,12.7
		c7.4,7.4,12.2,17.5,12.7,28.8c0,0.6,0,1.3,0,1.9c0,0.6,0,1.3,0,1.9v68.1h26.7V3788C69.7,3768.7,61.9,3751.2,49.2,3738.5z"/>
	<path class="st2" d="M-224.4,3774.6h-110c1.1-3.3,2.5-6.5,4.3-9.4c1.8-2.9,3.9-5.5,6.2-7.9c7.8-7.8,18.7-12.7,30.7-12.7
		c12,0,22.8,4.8,30.7,12.7l18.8-18.9c-12.7-12.6-30.2-20.5-49.5-20.5c-16.4,0-31.4,5.6-43.3,15c-2.2,1.7-4.2,3.5-6.2,5.5
		c-3.8,3.8-7.2,8.1-10.1,12.7c-4.4,7.1-7.5,15-9.2,23.4c-0.7,3.6-1.1,7.2-1.2,11v4.9c0.1,3.7,0.5,7.4,1.2,11h110
		c-1.1,3.4-2.6,6.5-4.4,9.5c-1.8,2.8-3.9,5.5-6.2,7.8c-7.8,7.8-18.7,12.7-30.6,12.7c-12,0-22.8-4.8-30.6-12.7l-12.7,12.7l-6.1,6.2
		c1.9,1.9,4,3.8,6.1,5.5c11.9,9.4,27,15,43.3,15c19.3,0,36.8-7.8,49.5-20.5c3.8-3.8,7.2-8,10-12.6c4.4-7.1,7.6-15,9.2-23.5
		c0.8-4.1,1.2-8.4,1.3-12.7v-1.4C-223.2,3783-223.6,3778.8-224.4,3774.6z M-293.1,3788.1l-0.2,0.1L-293.1,3788.1L-293.1,3788.1
		L-293.1,3788.1L-293.1,3788.1L-293.1,3788.1z"/>
	<circle class="st1" cx="569.2" cy="3653.3" r="13.3"/>
	<path class="st1" d="M538.6,3774.6h-110c1.1-3.3,2.5-6.5,4.3-9.4c1.8-2.9,3.9-5.5,6.2-7.9c7.8-7.8,18.7-12.7,30.7-12.7
		c12,0,22.8,4.8,30.7,12.7l18.8-18.9c-12.7-12.6-30.2-20.5-49.5-20.5c-16.4,0-31.4,5.6-43.3,15c-2.2,1.7-4.2,3.5-6.2,5.5
		c-3.8,3.8-7.2,8.1-10.1,12.7c-4.4,7.1-7.5,15-9.2,23.4c-0.7,3.6-1.1,7.2-1.2,11v4.9c0.1,3.7,0.5,7.4,1.2,11h110
		c-1.1,3.4-2.6,6.5-4.4,9.5c-1.8,2.8-3.9,5.5-6.2,7.8c-7.8,7.8-18.7,12.7-30.6,12.7c-12,0-22.8-4.8-30.6-12.7l-12.7,12.7l-6.1,6.2
		c1.9,1.9,4,3.8,6.1,5.5c11.9,9.4,27,15,43.3,15c19.3,0,36.8-7.8,49.5-20.5c3.8-3.8,7.2-8,10-12.6c4.4-7.1,7.6-15,9.2-23.5
		c0.8-4.1,1.2-8.4,1.3-12.7v-1.4C539.8,3783,539.4,3778.8,538.6,3774.6z M469.8,3788.1l-0.2,0.1L469.8,3788.1L469.8,3788.1
		L469.8,3788.1L469.8,3788.1L469.8,3788.1z"/>
</g>
<g>
	<path class="st1" d="M199.8,4988v93.2c0,0-0.1,0-0.1-0.1c-11.9-9.4-27-15-43.4-15c-19.3,0-36.8,7.8-49.4,20.4
		c-3.8,3.8-7.2,8.1-10.1,12.7c-6.3,10.1-10,21.9-10.5,34.5v4.8c0.4,12.6,4.2,24.4,10.5,34.4c2.9,4.6,6.2,8.9,10.1,12.7
		c12.7,12.6,30.2,20.5,49.5,20.5c16.4,0,31.4-5.6,43.4-15c0,0,0.1,0,0.1-0.1c2.1-1.7,4.1-3.5,6-5.4c3.8-3.8,7.2-8,10-12.6
		c6.5-10.5,10.4-22.9,10.5-36.2v-17.3h0V5066h0l0,0h0.2v-78H199.8z M156.4,5179.4c-12,0-22.8-4.8-30.6-12.7c-2.4-2.4-4.5-5-6.2-7.8
		c-4.1-6.6-6.5-14.5-6.5-22.9c0-8.4,2.4-16.2,6.5-22.8c1.8-2.9,3.9-5.5,6.2-7.9c7.8-7.8,18.7-12.7,30.7-12.7
		c12,0,22.8,4.8,30.7,12.7c2.4,2.4,4.5,5,6.3,7.9c3.8,6.2,6.2,13.5,6.4,21.3c0,0.5,0,1,0,1.5s0,1,0,1.5c-0.3,7.8-2.6,15.1-6.5,21.4
		c-1.8,2.8-3.9,5.5-6.2,7.8C179.2,5174.6,168.3,5179.4,156.4,5179.4z"/>
	<rect x="556.5" y="5066.5" class="st1" width="26.5" height="139.6"/>
	<path class="st1" d="M885.9,5099.1c-2.9-4.6-6.3-8.9-10.1-12.8c-1.9-1.9-4-3.7-6.1-5.4c-11.9-9.4-27-15-43.4-15
		c-16.4,0-31.4,5.6-43.3,15c-2.2,1.7-4.2,3.5-6.2,5.5c-3.8,3.8-7.2,8.1-10.1,12.7c-6.2,10.1-10,21.8-10.4,34.4v5
		c0.6,18.4,8.4,35,20.5,47.1c1.9,1.9,4,3.8,6.1,5.5v-52.8c0-0.8-0.1-1.5-0.1-2.3s0-1.5,0.1-2.3c0.4-7.5,2.7-14.5,6.4-20.5
		c1.8-2.9,3.9-5.5,6.2-7.9c7.8-7.8,18.7-12.7,30.7-12.7c12,0,22.8,4.8,30.7,12.7c2.4,2.4,4.5,5,6.3,7.9c3.8,6.2,6.2,13.5,6.4,21.3
		c0,0.5,0,1,0,1.5s0,1,0,1.5v68.6h26.7v-70.8C896.2,5122,892.4,5109.6,885.9,5099.1z"/>
	<g>
		<g>
			<path class="st1" d="M381.9,5122.6c-6.3-32.2-34.7-56.6-68.7-56.6c-19.3,0-36.8,7.8-49.5,20.5c-9.7,9.7-16.5,22.1-19.2,36.1
				c-0.7,3.6-1.1,7.2-1.2,11v4.9c0.1,3.7,0.5,7.4,1.2,11c6.3,32.3,34.7,56.6,68.7,56.6c19.3,0,36.8-7.8,49.5-20.5l-18.8-18.9
				c-7.8,7.8-18.7,12.7-30.6,12.7c-19.3,0-35.6-12.6-41.3-30h110c0.8-4.1,1.2-8.4,1.3-12.7v-1.4
				C383.1,5131,382.7,5126.8,381.9,5122.6z M271.9,5122.6c2.1-6.6,5.8-12.5,10.6-17.2c7.8-7.8,18.7-12.7,30.7-12.7
				c19.3,0,35.6,12.6,41.3,29.9H271.9z"/>
		</g>
	</g>
	<path class="st1" d="M729.2,5099.1c-2.9-4.6-6.3-8.9-10.1-12.8c-1.9-1.9-4-3.7-6.1-5.4c-11.9-9.4-27-15-43.4-15
		c-16.4,0-31.4,5.6-43.3,15c-2.2,1.7-4.2,3.5-6.2,5.5c-3.8,3.8-7.2,8.1-10.1,12.7c-5.3,8.6-8.8,18.4-10,29c-0.2,1.8-0.3,3.6-0.4,5.4
		v4.9c0.4,12.6,4.2,24.4,10.5,34.4c2.9,4.6,6.2,8.9,10.1,12.7c1.9,1.9,4,3.8,6.1,5.5c11.9,9.4,27,15,43.3,15
		c16.4,0,31.4-5.6,43.4-15c2.1-1.7,4.2-3.5,6.1-5.4c3.8-3.8,7.2-8,10-12.6c6.5-10.5,10.4-22.9,10.5-36.2v-1.4
		C739.5,5122,735.7,5109.6,729.2,5099.1z M669.7,5179.3c-12,0-22.8-4.8-30.6-12.7c-2.4-2.4-4.5-5-6.2-7.8c-3.8-6-6.1-13.1-6.5-20.6
		c0-0.8-0.1-1.5-0.1-2.3s0-1.5,0.1-2.3c0.4-7.5,2.7-14.5,6.4-20.5c1.8-2.9,3.9-5.5,6.2-7.9c7.8-7.8,18.7-12.7,30.7-12.7
		c12,0,22.8,4.8,30.7,12.7c2.4,2.4,4.5,5,6.3,7.9c3.8,6.2,6.2,13.5,6.4,21.3c0,0.5,0,1,0,1.5s0,1,0,1.5c-0.3,7.8-2.6,15.1-6.5,21.4
		c-1.8,2.8-3.9,5.5-6.2,7.8C692.5,5174.4,681.6,5179.3,669.7,5179.3z"/>
	<path class="st1" d="M739.7,5255.4c0,13.5-3.8,26.2-10.5,36.9c-2.9,4.6-6.2,8.8-10,12.6c-1.9,1.9-4,3.7-6.1,5.4
		c-11.9,9.4-27,15-43.4,15c-16.4,0-31.4-5.6-43.3-15c-2.2-1.7-4.2-3.5-6.1-5.5l6.1-6.2l12.7-12.7c7.8,7.8,18.7,12.7,30.6,12.7
		c12,0,22.8-4.8,30.6-12.7c2.4-2.4,4.4-5,6.2-7.8c3.9-6.2,6.2-13.6,6.5-21.4c0-0.5,0-1,0-1.5s0-1,0-1.5c-0.3-7.8-2.6-15.1-6.4-21.3
		c-1.8-2.9-3.9-5.5-6.3-7.9l12.7-12.7l6.1-6.1c3.8,3.8,7.2,8.1,10.1,12.8C735.9,5229.3,739.7,5241.9,739.7,5255.4z"/>
	<path class="st2" d="M-87,5185.6c-12.7,12.7-30.2,20.5-49.5,20.5c-19.3,0-36.8-7.8-49.5-20.5c-12.2-12.1-19.9-28.7-20.5-47.1v-4.9
		c0.6-18.4,8.3-35,20.5-47.1c12.7-12.7,30.2-20.5,49.5-20.5c19.3,0,36.8,7.8,49.5,20.5l-18.8,18.9c-7.8-7.8-18.7-12.7-30.7-12.7
		c-12,0-22.8,4.9-30.7,12.7c-7.9,7.9-12.7,18.7-12.7,30.7c0,12,4.9,22.9,12.7,30.7c7.8,7.8,18.7,12.7,30.6,12.7
		c12,0,22.8-4.8,30.6-12.7L-87,5185.6z"/>
	<path class="st2" d="M49.2,5086.5c-1.9-1.9-4-3.8-6.1-5.5c-11.9-9.4-27-15-43.3-15c-16.4,0-31.4,5.6-43.3,15v-6.4v-8.7v-78h-26.7
		v86.6l0,0v58.9v4.9c0.6,18.4,8.4,35,20.5,47.1c1.9,1.9,4,3.8,6.1,5.5v-52.7c0-0.8-0.1-1.5-0.1-2.3s0-1.5,0.1-2.3
		c0.4-7.5,2.7-14.5,6.4-20.5c1.8-2.9,3.9-5.5,6.2-7.9c7.8-7.8,18.7-12.7,30.7-12.7c12,0,22.8,4.8,30.7,12.7
		c7.4,7.4,12.2,17.5,12.7,28.8c0,0.6,0,1.3,0,1.9c0,0.6,0,1.3,0,1.9v68.1h26.7V5136C69.7,5116.7,61.9,5099.2,49.2,5086.5z"/>
	<path class="st2" d="M-224.4,5122.6h-110c1.1-3.3,2.5-6.5,4.3-9.4c1.8-2.9,3.9-5.5,6.2-7.9c7.8-7.8,18.7-12.7,30.7-12.7
		c12,0,22.8,4.8,30.7,12.7l18.8-18.9c-12.7-12.6-30.2-20.5-49.5-20.5c-16.4,0-31.4,5.6-43.3,15c-2.2,1.7-4.2,3.5-6.2,5.5
		c-3.8,3.8-7.2,8.1-10.1,12.7c-4.4,7.1-7.5,15-9.2,23.4c-0.7,3.6-1.1,7.2-1.2,11v4.9c0.1,3.7,0.5,7.4,1.2,11h110
		c-1.1,3.4-2.6,6.5-4.4,9.5c-1.8,2.8-3.9,5.5-6.2,7.8c-7.8,7.8-18.7,12.7-30.6,12.7c-12,0-22.8-4.8-30.6-12.7l-12.7,12.7l-6.1,6.2
		c1.9,1.9,4,3.8,6.1,5.5c11.9,9.4,27,15,43.3,15c19.3,0,36.8-7.8,49.5-20.5c3.8-3.8,7.2-8,10-12.6c4.4-7.1,7.6-15,9.2-23.5
		c0.8-4.1,1.2-8.4,1.3-12.7v-1.4C-223.2,5131-223.6,5126.8-224.4,5122.6z M-293.1,5136.1l-0.2,0.1L-293.1,5136.1L-293.1,5136.1
		L-293.1,5136.1L-293.1,5136.1L-293.1,5136.1z"/>
	<circle class="st1" cx="569.2" cy="5001.3" r="13.3"/>
	<path class="st1" d="M538.6,5122.6h-110c1.1-3.3,2.5-6.5,4.3-9.4c1.8-2.9,3.9-5.5,6.2-7.9c7.8-7.8,18.7-12.7,30.7-12.7
		c12,0,22.8,4.8,30.7,12.7l18.8-18.9c-12.7-12.6-30.2-20.5-49.5-20.5c-16.4,0-31.4,5.6-43.3,15c-2.2,1.7-4.2,3.5-6.2,5.5
		c-3.8,3.8-7.2,8.1-10.1,12.7c-4.4,7.1-7.5,15-9.2,23.4c-0.7,3.6-1.1,7.2-1.2,11v4.9c0.1,3.7,0.5,7.4,1.2,11h110
		c-1.1,3.4-2.6,6.5-4.4,9.5c-1.8,2.8-3.9,5.5-6.2,7.8c-7.8,7.8-18.7,12.7-30.6,12.7c-12,0-22.8-4.8-30.6-12.7l-12.7,12.7l-6.1,6.2
		c1.9,1.9,4,3.8,6.1,5.5c11.9,9.4,27,15,43.3,15c19.3,0,36.8-7.8,49.5-20.5c3.8-3.8,7.2-8,10-12.6c4.4-7.1,7.6-15,9.2-23.5
		c0.8-4.1,1.2-8.4,1.3-12.7v-1.4C539.8,5131,539.4,5126.8,538.6,5122.6z M469.8,5136.1l-0.2,0.1L469.8,5136.1L469.8,5136.1
		L469.8,5136.1L469.8,5136.1L469.8,5136.1z"/>
</g>
<g class="st3">
	<g>
		<path class="st2" d="M-1600.5,3856.1c-18.1,0-35.2-7.1-48.1-19.9c-3.7-3.7-7-7.9-9.8-12.3c-6.2-10-9.7-21.6-10.2-33.5l0-4.7
			c0.4-11.8,3.9-23.4,10.2-33.4c2.8-4.5,6.1-8.6,9.8-12.3c12.8-12.8,29.9-19.8,48-19.8c15.5,0,30,5,42.1,14.6
			c0.4,0.3,0.8,0.5,1.3,0.5c0.3,0,0.6-0.1,0.8-0.2c0.7-0.3,1.2-1,1.2-1.8V3642h22.7v75.1c-0.2,0.4-0.2,0.8-0.1,1.2v53.1
			c0,0.1,0,0.3,0,0.4v16.9c-0.1,12.4-3.7,24.6-10.2,35.1c-2.8,4.4-6,8.6-9.8,12.3c-1.8,1.8-3.8,3.6-5.9,5.2l-0.1,0.1
			C-1570.5,3851-1585,3856.1-1600.5,3856.1z M-1600.5,3742.7c-12.1,0-23.5,4.7-32.1,13.3c-2.5,2.5-4.7,5.3-6.5,8.2
			c-4.4,7.2-6.8,15.4-6.8,23.9c0,8.5,2.4,16.8,6.8,23.9c1.8,3,4,5.7,6.5,8.2c8.6,8.5,20,13.3,32.1,13.3c12.1,0,23.5-4.7,32.1-13.3
			c2.5-2.5,4.7-5.2,6.5-8.2c4.2-6.7,6.5-14.5,6.8-22.4c0-0.5,0-1,0-1.6s0-1,0-1.6c-0.3-7.9-2.6-15.6-6.7-22.3
			c-1.9-3-4.1-5.8-6.6-8.3C-1577,3747.4-1588.4,3742.7-1600.5,3742.7z"/>
		<path class="st0" d="M-1534.4,3644v72.8c-0.1,0.5-0.2,1-0.1,1.6v53.1c0,0.2,0,0.4,0,0.5l0,16.7c-0.1,12.1-3.5,23.9-9.9,34.1
			c-2.7,4.3-5.9,8.3-9.5,11.9c-1.8,1.8-3.7,3.5-5.7,5.1c0,0,0,0-0.1,0c-11.7,9.3-25.9,14.2-40.9,14.2c-17.6,0-34.2-6.9-46.6-19.3
			c-3.6-3.6-6.8-7.6-9.5-12c-6-9.7-9.4-20.9-9.9-32.4v-4.6c0.4-11.5,3.8-22.7,9.9-32.4c2.7-4.3,5.9-8.4,9.5-12
			c12.5-12.4,29-19.3,46.6-19.3c15,0,29.1,4.9,40.9,14.2c0,0,0,0,0.1,0c0.7,0.6,1.6,0.9,2.5,0.9c0.6,0,1.2-0.1,1.7-0.4
			c1.4-0.7,2.3-2.1,2.3-3.6V3644H-1534.4 M-1600.5,3835.4c12.6,0,24.5-4.9,33.5-13.8c2.6-2.6,4.9-5.4,6.8-8.5
			c4.4-7,6.8-15.1,7.1-23.4c0-0.5,0-1.1,0-1.6s0-1.1,0-1.6c-0.3-8.2-2.7-16.3-7-23.3c-1.9-3.1-4.2-6-6.9-8.7
			c-8.9-8.9-20.8-13.9-33.5-13.9c-12.7,0-24.5,4.9-33.5,13.9c-2.6,2.6-4.9,5.5-6.8,8.6c-4.6,7.5-7.1,16.1-7.1,24.9
			c0,8.9,2.5,17.5,7.1,25c1.9,3.1,4.2,6,6.8,8.6C-1625,3830.5-1613.1,3835.4-1600.5,3835.4 M-1530.4,3640h-26.7v93.2
			c0,0-0.1,0-0.1-0.1c-11.9-9.4-27-15-43.4-15c-19.3,0-36.8,7.8-49.4,20.4c-3.8,3.8-7.2,8.1-10.1,12.7c-6.3,10.1-10,21.9-10.5,34.5
			v4.8c0.4,12.6,4.2,24.4,10.5,34.4c2.9,4.6,6.2,8.9,10.1,12.7c12.7,12.6,30.2,20.5,49.5,20.5c16.4,0,31.4-5.6,43.4-15
			c0,0,0.1,0,0.1-0.1c2.1-1.7,4.1-3.5,6-5.4c3.8-3.8,7.2-8,10-12.6c6.5-10.5,10.4-22.9,10.5-36.2v-17.3h0V3718h0l0,0h0.2V3640
			L-1530.4,3640z M-1600.5,3831.4c-12,0-22.8-4.8-30.6-12.7c-2.4-2.4-4.5-5-6.2-7.8c-4.1-6.6-6.5-14.5-6.5-22.9
			c0-8.4,2.4-16.2,6.5-22.8c1.8-2.9,3.9-5.5,6.2-7.9c7.8-7.8,18.7-12.7,30.7-12.7c12,0,22.8,4.8,30.7,12.7c2.4,2.4,4.5,5,6.3,7.9
			c3.8,6.2,6.2,13.5,6.4,21.3c0,0.5,0,1,0,1.5s0,1,0,1.5c-0.3,7.8-2.6,15.1-6.5,21.4c-1.8,2.8-3.9,5.5-6.2,7.8
			C-1577.7,3826.6-1588.5,3831.4-1600.5,3831.4L-1600.5,3831.4z"/>
	</g>
	<g>
		<rect x="-1198.3" y="3720.5" class="st2" width="22.5" height="135.6"/>
		<path class="st0" d="M-1177.9,3722.5v131.6h-18.5v-131.6H-1177.9 M-1173.9,3718.5h-26.5v139.6h26.5V3718.5L-1173.9,3718.5z"/>
	</g>
	<g>
		<path class="st2" d="M-885.2,3856v-66.6c0-0.5,0-1,0-1.5s0-1,0-1.6c-0.3-7.9-2.6-15.6-6.7-22.3c-1.9-3-4.1-5.8-6.6-8.3
			c-8.6-8.6-20-13.3-32.1-13.3c-12.1,0-23.5,4.7-32.1,13.3c-2.5,2.5-4.7,5.3-6.5,8.2c-4,6.5-6.3,13.9-6.7,21.5
			c0,0.8-0.1,1.6-0.1,2.4c0,0.8,0,1.6,0.1,2.3v48.5c-0.9-0.8-1.9-1.7-2.7-2.6c-12.3-12.2-19.3-28.5-19.9-45.8l0-4.9
			c0.4-11.8,3.9-23.3,10.1-33.3c2.8-4.5,6.1-8.6,9.8-12.3c1.9-1.9,3.9-3.7,6-5.3c12.1-9.5,26.6-14.6,42.1-14.6
			c15.5,0,30,5,42.1,14.6c2.1,1.6,4.1,3.4,5.9,5.3c3.7,3.7,7.1,7.9,9.8,12.4c6.5,10.5,10,22.6,10.1,35v68.8H-885.2z"/>
		<path class="st0" d="M-930.5,3721.9c15,0,29.1,4.9,40.9,14.2c2,1.6,4,3.3,5.8,5.1c3.6,3.6,6.8,7.7,9.5,12c6.3,10.2,9.7,22,9.8,34
			v66.8h-18.7v-64.5c0-0.5,0-1,0-1.6c0-0.5,0-1.1,0-1.6c-0.3-8.2-2.7-16.3-7-23.3c-1.9-3.1-4.2-6-6.9-8.7
			c-8.9-8.9-20.8-13.9-33.5-13.9c-12.7,0-24.5,4.9-33.5,13.9c-2.6,2.6-4.9,5.5-6.8,8.6c-4.2,6.7-6.6,14.5-7,22.4
			c0,0.8-0.1,1.7-0.1,2.5c0,0.8,0,1.6,0.1,2.4v43.8c-11.5-11.8-18.1-27.2-18.7-43.7v-4.8c0.4-11.5,3.8-22.6,9.8-32.4
			c2.7-4.3,5.9-8.4,9.5-12c1.8-1.8,3.8-3.6,5.8-5.2C-959.6,3726.8-945.5,3721.9-930.5,3721.9 M-930.5,3717.9
			c-16.4,0-31.4,5.6-43.3,15c-2.2,1.7-4.2,3.5-6.2,5.5c-3.8,3.8-7.2,8.1-10.1,12.7c-6.2,10.1-10,21.8-10.4,34.4v5
			c0.6,18.4,8.4,35,20.5,47.1c1.9,1.9,4,3.8,6.1,5.5v-52.8c0-0.8-0.1-1.5-0.1-2.3s0-1.5,0.1-2.3c0.4-7.5,2.7-14.5,6.4-20.5
			c1.8-2.9,3.9-5.5,6.2-7.9c7.8-7.8,18.7-12.7,30.7-12.7c12,0,22.8,4.8,30.7,12.7c2.4,2.4,4.5,5,6.3,7.9c3.8,6.2,6.2,13.5,6.4,21.3
			c0,0.5,0,1,0,1.5s0,1,0,1.5v68.6h26.7v-70.8c-0.1-13.2-3.9-25.6-10.4-36.1c-2.9-4.6-6.3-8.9-10.1-12.8c-1.9-1.9-4-3.7-6.1-5.4
			C-899.1,3723.5-914.1,3717.9-930.5,3717.9L-930.5,3717.9z"/>
	</g>
	<g>
		<g>
			<g>
				<path class="st2" d="M-1443.7,3856.1c-32.5,0-60.6-23.1-66.8-55c-0.7-3.5-1.1-7.1-1.2-10.7l0-4.8c0.1-3.5,0.5-7.1,1.2-10.6
					c2.6-13.3,9.1-25.4,18.7-35.1c12.8-12.8,29.9-19.9,48.1-19.9c32.5,0,60.6,23.1,66.8,55c0.8,4,1.2,8.2,1.2,12.4v1.4
					c0,3.6-0.4,7.2-1,10.7H-1485c-0.6,0-1.2,0.3-1.6,0.8c-0.4,0.5-0.5,1.2-0.3,1.8c6.1,18.7,23.4,31.3,43.2,31.3
					c11.4,0,22.2-4.2,30.6-11.9l16,16C-1409.7,3849.6-1426.2,3856.1-1443.7,3856.1z M-1443.7,3742.7c-12.1,0-23.5,4.7-32.1,13.3
					c-5.1,5-8.9,11.3-11.1,18c-0.2,0.6-0.1,1.3,0.3,1.8c0.4,0.5,1,0.8,1.6,0.8h82.5c0.6,0,1.2-0.3,1.6-0.8c0.4-0.5,0.5-1.2,0.3-1.8
					C-1406.6,3755.3-1424,3742.7-1443.7,3742.7z"/>
				<path class="st0" d="M-1443.7,3722c31.5,0,58.8,22.4,64.8,53.4c0.8,3.9,1.2,8,1.2,12l0,1.4c0,2.9-0.3,5.9-0.7,8.7H-1485
					c-1.3,0-2.5,0.6-3.2,1.6c-0.8,1-1,2.4-0.6,3.6c6.4,19.6,24.5,32.7,45.1,32.7c11.3,0,22-3.9,30.5-11.1l13.2,13.2
					c-12.1,10.7-27.5,16.6-43.7,16.6c-31.6,0-58.8-22.4-64.8-53.4c-0.7-3.4-1-6.8-1.2-10.3v-4.8c0.1-3.5,0.5-6.9,1.2-10.3
					c2.5-12.9,8.8-24.7,18.1-34C-1477.9,3728.9-1461.3,3722-1443.7,3722 M-1485,3778.6h82.5c1.3,0,2.5-0.6,3.2-1.6
					c0.8-1,1-2.4,0.6-3.6c-6.4-19.6-24.5-32.7-45.1-32.7c-12.7,0-24.5,4.9-33.5,13.9c-5.3,5.3-9.3,11.8-11.6,18.8
					c-0.4,1.2-0.2,2.6,0.6,3.6C-1487.4,3778-1486.2,3778.6-1485,3778.6 M-1443.7,3718c-19.3,0-36.8,7.8-49.5,20.5
					c-9.7,9.7-16.5,22.1-19.2,36.1c-0.7,3.6-1.1,7.2-1.2,11v4.9c0.1,3.7,0.5,7.4,1.2,11c6.3,32.3,34.7,56.6,68.7,56.6
					c19.3,0,36.8-7.8,49.5-20.5l-18.8-18.9c-7.8,7.8-18.7,12.7-30.6,12.7c-19.3,0-35.6-12.6-41.3-30h110c0.8-4.1,1.2-8.4,1.3-12.7
					v-1.4c0-4.3-0.5-8.6-1.3-12.7C-1381.2,3742.4-1409.6,3718-1443.7,3718L-1443.7,3718z M-1485,3774.6c2.1-6.6,5.8-12.5,10.6-17.2
					c7.8-7.8,18.7-12.7,30.7-12.7c19.3,0,35.6,12.6,41.3,29.9H-1485L-1485,3774.6z"/>
			</g>
		</g>
	</g>
	<g>
		<path class="st2" d="M-1087.2,3855.9c-15.4,0-30-5-42.1-14.6c-2.1-1.6-4.1-3.4-6-5.3c-3.7-3.7-7-7.9-9.8-12.3
			c-6.2-10-9.7-21.6-10.2-33.5l0-4.8c0.1-1.7,0.2-3.5,0.4-5.2c1.1-10.1,4.4-19.5,9.7-28.1c2.8-4.5,6.1-8.6,9.8-12.3
			c1.9-1.9,3.9-3.7,6-5.3c12.1-9.5,26.6-14.6,42.1-14.6c15.5,0,30,5,42.1,14.6c2.1,1.6,4.1,3.4,5.9,5.3c3.7,3.7,7.1,7.9,9.8,12.4
			c6.5,10.5,10,22.6,10.1,35v1.4c-0.1,12.4-3.7,24.6-10.2,35.1c-2.8,4.4-6,8.6-9.8,12.3c-1.9,1.9-3.9,3.6-5.9,5.3
			C-1057.2,3850.9-1071.7,3855.9-1087.2,3855.9z M-1087.2,3742.5c-12.1,0-23.5,4.7-32.1,13.3c-2.5,2.5-4.7,5.3-6.5,8.2
			c-4,6.5-6.3,13.9-6.7,21.5c0,0.8-0.1,1.6-0.1,2.4c0,0.8,0,1.6,0.1,2.4c0.4,7.6,2.7,15.1,6.8,21.5c1.8,3,4,5.7,6.5,8.2
			c8.6,8.5,20,13.3,32.1,13.3c12.1,0,23.5-4.7,32.1-13.3c2.5-2.5,4.7-5.2,6.5-8.2c4.2-6.7,6.5-14.5,6.8-22.4c0-0.5,0-1,0-1.6
			s0-1,0-1.6c-0.3-7.9-2.6-15.6-6.7-22.3c-1.9-3-4.1-5.8-6.6-8.3C-1063.7,3747.2-1075.1,3742.5-1087.2,3742.5z"/>
		<path class="st0" d="M-1087.2,3721.9c15,0,29.1,4.9,40.9,14.2c2,1.6,4,3.3,5.8,5.1c3.6,3.6,6.8,7.7,9.5,12c6.3,10.2,9.7,22,9.8,34
			l0,1.4c-0.1,12.1-3.5,23.9-9.9,34.1c-2.7,4.3-5.9,8.3-9.5,11.9c-1.8,1.8-3.8,3.5-5.8,5.1c-11.7,9.3-25.9,14.2-40.9,14.2
			c-15,0-29.1-4.9-40.8-14.1c-2-1.6-4-3.3-5.8-5.1c-3.6-3.6-6.8-7.6-9.5-12c-6-9.7-9.4-20.9-9.9-32.4v-4.8c0.1-1.7,0.2-3.4,0.4-5.1
			c1.1-9.8,4.3-18.9,9.4-27.3c2.7-4.3,5.9-8.4,9.5-12c1.8-1.8,3.8-3.6,5.8-5.2C-1116.3,3726.8-1102.2,3721.9-1087.2,3721.9
			 M-1087.2,3835.3c12.6,0,24.5-4.9,33.5-13.8c2.6-2.6,4.9-5.4,6.8-8.5c4.4-7,6.8-15.1,7.1-23.4c0-0.5,0-1.1,0-1.6
			c0-0.5,0-1.1,0-1.6c-0.3-8.2-2.7-16.3-7-23.3c-1.9-3.1-4.2-6-6.9-8.7c-8.9-8.9-20.8-13.9-33.5-13.9c-12.7,0-24.5,4.9-33.5,13.9
			c-2.6,2.6-4.9,5.5-6.8,8.6c-4.2,6.7-6.6,14.5-7,22.4c0,0.8-0.1,1.7-0.1,2.5c0,0.8,0,1.7,0.1,2.5c0.4,8,2.8,15.7,7.1,22.5
			c1.9,3.1,4.2,6,6.8,8.6C-1111.7,3830.4-1099.8,3835.3-1087.2,3835.3 M-1087.2,3717.9c-16.4,0-31.4,5.6-43.3,15
			c-2.2,1.7-4.2,3.5-6.2,5.5c-3.8,3.8-7.2,8.1-10.1,12.7c-5.3,8.6-8.8,18.4-10,29c-0.2,1.8-0.3,3.6-0.4,5.4v4.9
			c0.4,12.6,4.2,24.4,10.5,34.4c2.9,4.6,6.2,8.9,10.1,12.7c1.9,1.9,4,3.8,6.1,5.5c11.9,9.4,27,15,43.3,15c16.4,0,31.4-5.6,43.4-15
			c2.1-1.7,4.2-3.5,6.1-5.4c3.8-3.8,7.2-8,10-12.6c6.5-10.5,10.4-22.9,10.5-36.2v-1.4c-0.1-13.2-3.9-25.6-10.4-36.1
			c-2.9-4.6-6.3-8.9-10.1-12.8c-1.9-1.9-4-3.7-6.1-5.4C-1055.8,3723.5-1070.8,3717.9-1087.2,3717.9L-1087.2,3717.9z M-1087.2,3831.3
			c-12,0-22.8-4.8-30.6-12.7c-2.4-2.4-4.5-5-6.2-7.8c-3.8-6-6.1-13.1-6.5-20.6c0-0.8-0.1-1.5-0.1-2.3s0-1.5,0.1-2.3
			c0.4-7.5,2.7-14.5,6.4-20.5c1.8-2.9,3.9-5.5,6.2-7.9c7.8-7.8,18.7-12.7,30.7-12.7c12,0,22.8,4.8,30.7,12.7c2.4,2.4,4.5,5,6.3,7.9
			c3.8,6.2,6.2,13.5,6.4,21.3c0,0.5,0,1,0,1.5c0,0.5,0,1,0,1.5c-0.3,7.8-2.6,15.1-6.5,21.4c-1.8,2.8-3.9,5.5-6.2,7.8
			C-1064.4,3826.4-1075.2,3831.3-1087.2,3831.3L-1087.2,3831.3z"/>
	</g>
	<g>
		<path class="st2" d="M-1087.2,3975.4c-15.4,0-30-5-42.1-14.6c-1.6-1.2-3.1-2.5-4.5-3.9l16-16c8.4,7.7,19.2,11.9,30.6,11.9
			c12.1,0,23.5-4.7,32.1-13.3c2.5-2.5,4.7-5.2,6.5-8.2c4.2-6.7,6.5-14.5,6.8-22.4c0-0.5,0-1,0-1.6s0-1,0-1.6
			c-0.3-7.9-2.6-15.6-6.7-22.3c-1.5-2.4-3.2-4.7-5.2-6.8l16-16c3.2,3.4,6,7,8.4,11c6.6,10.7,10.1,23.1,10.1,35.7
			c0,12.7-3.5,25.1-10.2,35.9c-2.8,4.4-6,8.6-9.8,12.3c-1.9,1.9-3.9,3.6-5.9,5.3C-1057.2,3970.4-1071.7,3975.4-1087.2,3975.4z"/>
		<path class="st0" d="M-1037.8,3863.6c2.5,2.8,4.8,5.9,6.8,9.1c6.4,10.4,9.8,22.4,9.8,34.7c0,12.3-3.4,24.4-9.9,34.8
			c-2.7,4.3-5.9,8.3-9.5,11.9c-1.8,1.8-3.8,3.5-5.8,5.1c-11.7,9.3-25.9,14.2-40.9,14.2c-15,0-29.1-4.9-40.8-14.1
			c-1-0.8-1.9-1.6-2.9-2.4l3.2-3.2l10-10c8.5,7.2,19.2,11.1,30.5,11.1c12.6,0,24.5-4.9,33.5-13.8c2.6-2.6,4.9-5.4,6.8-8.5
			c4.4-7,6.8-15.1,7.1-23.4c0-0.5,0-1.1,0-1.6c0-0.5,0-1.1,0-1.6c-0.3-8.2-2.7-16.3-7-23.3c-1.2-2-2.6-3.9-4.1-5.7l10-10
			L-1037.8,3863.6 M-1037.7,3857.8l-6.1,6.1l-12.7,12.7c2.4,2.4,4.5,5,6.3,7.9c3.8,6.2,6.2,13.5,6.4,21.3c0,0.5,0,1,0,1.5
			c0,0.5,0,1,0,1.5c-0.3,7.8-2.6,15.1-6.5,21.4c-1.8,2.8-3.9,5.5-6.2,7.8c-7.8,7.8-18.7,12.7-30.6,12.7c-12,0-22.8-4.8-30.6-12.7
			l-12.7,12.7l-6.1,6.2c1.9,1.9,4,3.8,6.1,5.5c11.9,9.4,27,15,43.3,15c16.4,0,31.4-5.6,43.4-15c2.1-1.7,4.2-3.5,6.1-5.4
			c3.8-3.8,7.2-8,10-12.6c6.7-10.7,10.5-23.4,10.5-36.9c0-13.5-3.8-26.1-10.4-36.8C-1030.5,3865.9-1033.9,3861.7-1037.7,3857.8
			L-1037.7,3857.8z"/>
	</g>
	<g>
		<path class="st2" d="M-1187.7,3664.7c-6.2,0-11.3-5.1-11.3-11.3c0-6.2,5.1-11.3,11.3-11.3c6.2,0,11.3,5.1,11.3,11.3
			C-1176.3,3659.6-1181.4,3664.7-1187.7,3664.7z"/>
		<path class="st0" d="M-1187.7,3644c5.1,0,9.3,4.2,9.3,9.3s-4.2,9.3-9.3,9.3c-5.1,0-9.3-4.2-9.3-9.3S-1192.8,3644-1187.7,3644
			 M-1187.7,3640c-7.4,0-13.3,6-13.3,13.3s6,13.3,13.3,13.3s13.3-6,13.3-13.3S-1180.3,3640-1187.7,3640L-1187.7,3640z"/>
	</g>
	<g>
		<path class="st2" d="M-1287,3856.1c-15.4,0-30-5-42.1-14.6c-1.6-1.2-3.1-2.5-4.5-3.9l16-16c8.4,7.7,19.2,11.9,30.6,11.9
			c12.1,0,23.5-4.7,32.1-13.3c2.5-2.5,4.7-5.2,6.5-8.2c1.9-3.1,3.5-6.4,4.6-9.9c0.2-0.6,0.1-1.3-0.3-1.8c-0.4-0.5-1-0.8-1.6-0.8
			h-108.3c-0.5-3-0.8-6-0.9-9l0-4.8c0.1-3.5,0.5-7.1,1.2-10.6c1.6-8.1,4.6-15.7,8.9-22.7c2.8-4.5,6.1-8.6,9.8-12.3
			c1.9-1.9,3.9-3.7,6-5.3c12.1-9.5,26.6-14.6,42.1-14.6c17.5,0,34,6.6,46.6,18.5l-16,16c-8.4-7.7-19.2-11.9-30.6-11.9
			c-12.1,0-23.5,4.7-32.1,13.3c-2.5,2.5-4.7,5.3-6.5,8.2c-1.9,3.1-3.4,6.4-4.6,9.8c-0.2,0.6-0.1,1.3,0.3,1.8c0.4,0.5,1,0.8,1.6,0.8
			h108.3c0.6,3.5,0.9,7.1,1,10.7v1.4c0,4.1-0.5,8.3-1.2,12.3c-1.6,8.1-4.6,15.8-9,22.8c-2.8,4.4-6,8.6-9.8,12.3
			C-1251.8,3849-1268.9,3856.1-1287,3856.1z M-1287,3786.1c-0.5,0-1.1,0.2-1.5,0.5l-0.1,0.1c-0.7,0.7-0.8,1.9-0.1,2.7
			c0.4,0.5,1,0.8,1.6,0.8c0.2,0,0.3,0,0.5-0.1c0.5-0.1,1-0.3,1.3-0.7c0.6-0.8,0.6-1.9-0.1-2.7
			C-1285.9,3786.4-1286.4,3786.1-1287,3786.1C-1287,3786.1-1287,3786.1-1287,3786.1z"/>
		<path class="st0" d="M-1287,3722c16.3,0,31.7,5.9,43.7,16.6l-13.2,13.2c-8.5-7.2-19.2-11.1-30.5-11.1c-12.7,0-24.5,4.9-33.5,13.9
			c-2.6,2.6-4.9,5.5-6.8,8.6c-2,3.2-3.6,6.7-4.8,10.2c-0.4,1.2-0.2,2.6,0.6,3.6s2,1.6,3.2,1.6h106.6c0.4,2.9,0.6,5.8,0.7,8.7l0,1.4
			c0,4-0.4,8.1-1.2,12c-1.5,7.9-4.5,15.3-8.7,22.1c-2.7,4.3-5.9,8.3-9.5,11.9c-12.5,12.4-29,19.3-46.7,19.3
			c-15,0-29.1-4.9-40.8-14.1c-1-0.8-1.9-1.6-2.9-2.4l3.2-3.2l10-10c8.5,7.2,19.2,11.1,30.5,11.1c12.6,0,24.5-4.9,33.5-13.8
			c2.6-2.6,4.9-5.4,6.8-8.5c2-3.2,3.6-6.7,4.8-10.3c0.4-1.2,0.2-2.6-0.6-3.6c-0.8-1-2-1.6-3.2-1.6h-106.6c-0.3-2.3-0.5-4.7-0.6-7
			v-4.8c0.1-3.5,0.5-6.9,1.2-10.3c1.5-7.8,4.4-15.3,8.6-22.1c2.7-4.3,5.9-8.4,9.5-12c1.8-1.8,3.8-3.6,5.8-5.2
			C-1316.1,3726.9-1302,3722-1287,3722 M-1287.2,3792.2c0.3,0,0.6,0,0.8-0.1c1-0.1,1.9-0.6,2.5-1.4c1.3-1.6,1.2-3.9-0.3-5.3
			l-0.1-0.1c0,0,0,0-0.1-0.1c-0.8-0.8-1.8-1.2-2.8-1.2c-1,0-2,0.4-2.8,1.2c0,0,0,0-0.1,0.1l-0.1,0.1c-1.4,1.4-1.6,3.7-0.3,5.3
			C-1289.5,3791.7-1288.4,3792.2-1287.2,3792.2 M-1287,3718c-16.4,0-31.4,5.6-43.3,15c-2.2,1.7-4.2,3.5-6.2,5.5
			c-3.8,3.8-7.2,8.1-10.1,12.7c-4.4,7.1-7.5,15-9.2,23.4c-0.7,3.6-1.1,7.2-1.2,11v4.9c0.1,3.7,0.5,7.4,1.2,11h110
			c-1.1,3.4-2.6,6.5-4.4,9.5c-1.8,2.8-3.9,5.5-6.2,7.8c-7.8,7.8-18.7,12.7-30.6,12.7c-12,0-22.8-4.8-30.6-12.7l-12.7,12.7l-6.1,6.2
			c1.9,1.9,4,3.8,6.1,5.5c11.9,9.4,27,15,43.3,15c19.3,0,36.8-7.8,49.5-20.5c3.8-3.8,7.2-8,10-12.6c4.4-7.1,7.6-15,9.2-23.5
			c0.8-4.1,1.2-8.4,1.3-12.7v-1.4c0-4.3-0.5-8.6-1.3-12.7h-110c1.1-3.3,2.5-6.5,4.3-9.4c1.8-2.9,3.9-5.5,6.2-7.9
			c7.8-7.8,18.7-12.7,30.7-12.7c12,0,22.8,4.8,30.7,12.7l18.8-18.9C-1250.2,3725.9-1267.7,3718-1287,3718L-1287,3718z
			 M-1287.2,3788.2l0.1-0.1l0,0l0,0l0.1,0.1l-0.1-0.1L-1287.2,3788.2L-1287.2,3788.2z"/>
	</g>
</g>
<g class="st3">
	<g>
		<path class="st2" d="M-487.8,3934.1v-91c0-0.8-0.4-1.5-1.1-1.8c-0.3-0.1-0.6-0.2-0.9-0.2c-0.4,0-0.9,0.1-1.2,0.4
			c-12.1,9.5-26.6,14.6-42.1,14.6c-15.4,0-30-5-42.1-14.6c-2.1-1.6-4.1-3.4-6-5.3c-12.9-12.9-20-30-20-48.1V3720h22.7v66.1
			c0,0.6,0,1.3,0,1.9c0,0.7,0,1.4,0,2c0.5,11.4,5.2,22,13.3,30.1c8.6,8.6,20,13.3,32.1,13.3c12.1,0,23.5-4.7,32.1-13.3
			c2.5-2.5,4.7-5.3,6.5-8.2c4-6.5,6.3-13.9,6.7-21.5c0-0.8,0.1-1.6,0.1-2.4c0-0.8,0-1.6-0.1-2.3v-48.4c0.9,0.8,1.9,1.7,2.7,2.6
			c12.3,12.2,19.3,28.5,19.9,45.8l0,63.8c0,0.1,0,0.2,0,0.3v84.3H-487.8z"/>
		<path class="st0" d="M-580.5,3722v64c0,0.7,0,1.3,0,2c0,0.7,0,1.4,0,2.1c0.5,11.9,5.4,23,13.9,31.4c8.9,8.9,20.8,13.9,33.5,13.9
			c12.7,0,24.5-4.9,33.5-13.9c2.6-2.6,4.9-5.5,6.8-8.6c4.2-6.7,6.6-14.5,7-22.4c0-0.8,0.1-1.7,0.1-2.5c0-0.8,0-1.6-0.1-2.4V3742
			c11.5,11.8,18.1,27.2,18.7,43.7v4.8v58.9c0,0.1,0,0.3,0,0.4v82.2h-18.7v-74v-8.7v-6.4c0-1.5-0.9-2.9-2.3-3.6
			c-0.6-0.3-1.2-0.4-1.7-0.4c-0.9,0-1.8,0.3-2.5,0.9c-11.7,9.3-25.9,14.1-40.8,14.1c-15,0-29.1-4.9-40.9-14.2c-2-1.6-4-3.3-5.8-5.1
			c-12.5-12.5-19.4-29.1-19.4-46.7V3722H-580.5 M-576.5,3718h-26.7v70.1c0,19.4,7.9,36.9,20.6,49.6c1.9,1.9,4,3.8,6.1,5.5
			c11.9,9.4,27,15,43.3,15c16.4,0,31.4-5.6,43.3-15v6.4v8.7v78h26.7v-86.6l0,0v-58.9v-4.9c-0.6-18.4-8.4-35-20.5-47.1
			c-1.9-1.9-4-3.8-6.1-5.5v52.7c0,0.8,0.1,1.5,0.1,2.3s0,1.5-0.1,2.3c-0.4,7.5-2.7,14.5-6.4,20.5c-1.8,2.9-3.9,5.5-6.2,7.9
			c-7.8,7.8-18.7,12.7-30.7,12.7c-12,0-22.8-4.8-30.7-12.7c-7.4-7.4-12.2-17.5-12.7-28.8c0-0.6,0-1.3,0-1.9c0-0.6,0-1.3,0-1.9V3718
			L-576.5,3718z"/>
	</g>
	<g>
		<path class="st2" d="M-690.4,3856.1c-15.5,0-30-5-42.1-14.6l-0.1-0.1c-2-1.6-4-3.4-5.9-5.2c-3.7-3.7-7-7.8-9.8-12.3
			c-6.5-10.5-10.1-22.7-10.2-35.2v-16.9c0-0.1,0-0.3,0-0.4v-53.2c0.1-0.4,0-0.8-0.1-1.1V3642h22.7v91.2c0,0.8,0.4,1.5,1.1,1.8
			c0.3,0.1,0.6,0.2,0.9,0.2c0.4,0,0.9-0.1,1.2-0.4c0,0,0.1-0.1,0.1-0.1c12.1-9.6,26.7-14.6,42.1-14.6c18.1,0,35.2,7,48,19.8
			c3.7,3.7,7,7.9,9.8,12.3c6.3,10.1,9.8,21.6,10.2,33.5l0,4.7c-0.4,11.8-3.9,23.3-10.2,33.4c-2.8,4.5-6.1,8.6-9.8,12.3
			C-655.1,3849-672.2,3856.1-690.4,3856.1z M-690.4,3742.7c-12.1,0-23.5,4.7-32.1,13.3c-2.5,2.5-4.7,5.3-6.6,8.3
			c-4.1,6.7-6.5,14.4-6.7,22.3c0,0.5,0,1,0,1.6s0,1,0,1.6c0.3,7.9,2.6,15.7,6.8,22.4c1.8,3,4,5.7,6.5,8.2c8.6,8.6,20,13.3,32.1,13.3
			c12.1,0,23.5-4.7,32.1-13.3c2.5-2.5,4.7-5.2,6.5-8.2c4.5-7.2,6.8-15.4,6.8-23.9c0-8.5-2.3-16.7-6.8-23.9c-1.8-3-4-5.8-6.5-8.2
			C-666.8,3747.4-678.2,3742.7-690.4,3742.7z"/>
		<path class="st0" d="M-737.8,3644v89.2c0,1.5,0.9,2.9,2.3,3.6c0.6,0.3,1.2,0.4,1.7,0.4c0.9,0,1.8-0.3,2.5-0.9c0,0,0,0,0,0
			c0,0,0,0,0.1,0c11.7-9.3,25.9-14.2,40.9-14.2c17.6,0,34.1,6.8,46.6,19.3c3.6,3.6,6.8,7.6,9.5,12c6.1,9.7,9.5,21,9.9,32.4v4.6
			c-0.4,11.5-3.8,22.7-9.8,32.4c-2.7,4.3-5.9,8.4-9.5,12c-12.5,12.4-29,19.3-46.6,19.3c-15,0-29.1-4.9-40.9-14.2c0,0,0,0-0.1,0
			c-2-1.6-3.9-3.3-5.7-5.1c-3.6-3.6-6.8-7.6-9.5-11.9c-6.4-10.2-9.8-22-9.9-34.1V3772c0-0.2,0-0.4,0-0.6v-53c0.1-0.6,0-1.1-0.1-1.6
			V3644H-737.8 M-690.4,3835.4c12.6,0,24.5-4.9,33.5-13.8c2.6-2.6,4.9-5.5,6.8-8.6c4.7-7.5,7.1-16.1,7.1-25c0-8.8-2.4-17.4-7.1-24.9
			c-1.9-3.1-4.2-6-6.8-8.6c-8.9-8.9-20.8-13.9-33.5-13.9c-12.6,0-24.5,4.9-33.5,13.9c-2.6,2.6-4.9,5.5-6.9,8.7c-4.3,7-6.7,15-7,23.3
			c0,0.5,0,1.1,0,1.6s0,1.1,0,1.6c0.3,8.3,2.7,16.4,7.1,23.4c1.9,3.1,4.2,6,6.8,8.5C-714.9,3830.5-703,3835.4-690.4,3835.4
			 M-733.8,3640h-26.7v78h0.2l0,0h0v53.5h0v17.3c0.1,13.3,4,25.7,10.5,36.2c2.9,4.6,6.2,8.8,10,12.6c1.9,1.9,3.9,3.7,6,5.4
			c0,0,0.1,0,0.1,0.1c11.9,9.4,27,15,43.4,15c19.3,0,36.8-7.8,49.5-20.5c3.8-3.8,7.2-8.1,10.1-12.7c6.2-10.1,10-21.8,10.5-34.4v-4.8
			c-0.4-12.6-4.2-24.4-10.5-34.5c-2.9-4.6-6.3-8.9-10.1-12.7c-12.7-12.6-30.1-20.4-49.4-20.4c-16.4,0-31.4,5.6-43.4,15
			c0,0-0.1,0-0.1,0.1V3640L-733.8,3640z M-690.4,3831.4c-12,0-22.8-4.8-30.6-12.7c-2.4-2.4-4.4-5-6.2-7.8
			c-3.9-6.2-6.2-13.6-6.5-21.4c0-0.5,0-1,0-1.5s0-1,0-1.5c0.3-7.8,2.6-15.1,6.4-21.3c1.8-2.9,3.9-5.5,6.3-7.9
			c7.8-7.8,18.7-12.7,30.7-12.7c12,0,22.8,4.9,30.7,12.7c2.4,2.4,4.5,5,6.2,7.9c4.1,6.6,6.5,14.4,6.5,22.8c0,8.4-2.4,16.2-6.5,22.9
			c-1.8,2.8-3.9,5.5-6.2,7.8C-667.6,3826.6-678.4,3831.4-690.4,3831.4L-690.4,3831.4z"/>
	</g>
</g>
<text transform="matrix(1 0 0 1 -1484.2446 5205.8984)" style="opacity:0.4;fill:#FFFFFF; font-family:'Oxygen-Regular'; font-size:255.194px; letter-spacing:-10;">design by</text>
<g>
	<path class="st1" d="M199.8,4304v93.2c0,0-0.1,0-0.1-0.1c-11.9-9.4-27-15-43.4-15c-19.3,0-36.8,7.8-49.4,20.4
		c-3.8,3.8-7.2,8.1-10.1,12.7c-6.3,10.1-10,21.9-10.5,34.5v4.8c0.4,12.6,4.2,24.4,10.5,34.4c2.9,4.6,6.2,8.9,10.1,12.7
		c12.7,12.6,30.2,20.5,49.5,20.5c16.4,0,31.4-5.6,43.4-15c0,0,0.1,0,0.1-0.1c2.1-1.7,4.1-3.5,6-5.4c3.8-3.8,7.2-8,10-12.6
		c6.5-10.5,10.4-22.9,10.5-36.2v-17.3h0V4382h0l0,0h0.2v-78H199.8z M156.4,4495.4c-12,0-22.8-4.8-30.6-12.7c-2.4-2.4-4.5-5-6.2-7.8
		c-4.1-6.6-6.5-14.5-6.5-22.9c0-8.4,2.4-16.2,6.5-22.8c1.8-2.9,3.9-5.5,6.2-7.9c7.8-7.8,18.7-12.7,30.7-12.7
		c12,0,22.8,4.8,30.7,12.7c2.4,2.4,4.5,5,6.3,7.9c3.8,6.2,6.2,13.5,6.4,21.3c0,0.5,0,1,0,1.5s0,1,0,1.5c-0.3,7.8-2.6,15.1-6.5,21.4
		c-1.8,2.8-3.9,5.5-6.2,7.8C179.2,4490.6,168.3,4495.4,156.4,4495.4z"/>
	<rect x="556.5" y="4382.5" class="st1" width="26.5" height="139.6"/>
	<path class="st1" d="M885.9,4415.1c-2.9-4.6-6.3-8.9-10.1-12.8c-1.9-1.9-4-3.7-6.1-5.4c-11.9-9.4-27-15-43.4-15
		c-16.4,0-31.4,5.6-43.3,15c-2.2,1.7-4.2,3.5-6.2,5.5c-3.8,3.8-7.2,8.1-10.1,12.7c-6.2,10.1-10,21.8-10.4,34.4v5
		c0.6,18.4,8.4,35,20.5,47.1c1.9,1.9,4,3.8,6.1,5.5v-52.8c0-0.8-0.1-1.5-0.1-2.3s0-1.5,0.1-2.3c0.4-7.5,2.7-14.5,6.4-20.5
		c1.8-2.9,3.9-5.5,6.2-7.9c7.8-7.8,18.7-12.7,30.7-12.7c12,0,22.8,4.8,30.7,12.7c2.4,2.4,4.5,5,6.3,7.9c3.8,6.2,6.2,13.5,6.4,21.3
		c0,0.5,0,1,0,1.5s0,1,0,1.5v68.6h26.7v-70.8C896.2,4438,892.4,4425.6,885.9,4415.1z"/>
	<g>
		<g>
			<path class="st1" d="M381.9,4438.6c-6.3-32.2-34.7-56.6-68.7-56.6c-19.3,0-36.8,7.8-49.5,20.5c-9.7,9.7-16.5,22.1-19.2,36.1
				c-0.7,3.6-1.1,7.2-1.2,11v4.9c0.1,3.7,0.5,7.4,1.2,11c6.3,32.3,34.7,56.6,68.7,56.6c19.3,0,36.8-7.8,49.5-20.5l-18.8-18.9
				c-7.8,7.8-18.7,12.7-30.6,12.7c-19.3,0-35.6-12.6-41.3-30h110c0.8-4.1,1.2-8.4,1.3-12.7v-1.4
				C383.1,4447,382.7,4442.8,381.9,4438.6z M271.9,4438.6c2.1-6.6,5.8-12.5,10.6-17.2c7.8-7.8,18.7-12.7,30.7-12.7
				c19.3,0,35.6,12.6,41.3,29.9H271.9z"/>
		</g>
	</g>
	<path class="st1" d="M729.2,4415.1c-2.9-4.6-6.3-8.9-10.1-12.8c-1.9-1.9-4-3.7-6.1-5.4c-11.9-9.4-27-15-43.4-15
		c-16.4,0-31.4,5.6-43.3,15c-2.2,1.7-4.2,3.5-6.2,5.5c-3.8,3.8-7.2,8.1-10.1,12.7c-5.3,8.6-8.8,18.4-10,29c-0.2,1.8-0.3,3.6-0.4,5.4
		v4.9c0.4,12.6,4.2,24.4,10.5,34.4c2.9,4.6,6.2,8.9,10.1,12.7c1.9,1.9,4,3.8,6.1,5.5c11.9,9.4,27,15,43.3,15
		c16.4,0,31.4-5.6,43.4-15c2.1-1.7,4.2-3.5,6.1-5.4c3.8-3.8,7.2-8,10-12.6c6.5-10.5,10.4-22.9,10.5-36.2v-1.4
		C739.5,4438,735.7,4425.6,729.2,4415.1z M669.7,4495.3c-12,0-22.8-4.8-30.6-12.7c-2.4-2.4-4.5-5-6.2-7.8c-3.8-6-6.1-13.1-6.5-20.6
		c0-0.8-0.1-1.5-0.1-2.3s0-1.5,0.1-2.3c0.4-7.5,2.7-14.5,6.4-20.5c1.8-2.9,3.9-5.5,6.2-7.9c7.8-7.8,18.7-12.7,30.7-12.7
		c12,0,22.8,4.8,30.7,12.7c2.4,2.4,4.5,5,6.3,7.9c3.8,6.2,6.2,13.5,6.4,21.3c0,0.5,0,1,0,1.5s0,1,0,1.5c-0.3,7.8-2.6,15.1-6.5,21.4
		c-1.8,2.8-3.9,5.5-6.2,7.8C692.5,4490.4,681.6,4495.3,669.7,4495.3z"/>
	<path class="st1" d="M739.7,4571.4c0,13.5-3.8,26.2-10.5,36.9c-2.9,4.6-6.2,8.8-10,12.6c-1.9,1.9-4,3.7-6.1,5.4
		c-11.9,9.4-27,15-43.4,15c-16.4,0-31.4-5.6-43.3-15c-2.2-1.7-4.2-3.5-6.1-5.5l6.1-6.2l12.7-12.7c7.8,7.8,18.7,12.7,30.6,12.7
		c12,0,22.8-4.8,30.6-12.7c2.4-2.4,4.4-5,6.2-7.8c3.9-6.2,6.2-13.6,6.5-21.4c0-0.5,0-1,0-1.5s0-1,0-1.5c-0.3-7.8-2.6-15.1-6.4-21.3
		c-1.8-2.9-3.9-5.5-6.3-7.9l12.7-12.7l6.1-6.1c3.8,3.8,7.2,8.1,10.1,12.8C735.9,4545.3,739.7,4557.9,739.7,4571.4z"/>
	<path class="st2" d="M-87,4501.6c-12.7,12.7-30.2,20.5-49.5,20.5c-19.3,0-36.8-7.8-49.5-20.5c-12.2-12.1-19.9-28.7-20.5-47.1v-4.9
		c0.6-18.4,8.3-35,20.5-47.1c12.7-12.7,30.2-20.5,49.5-20.5c19.3,0,36.8,7.8,49.5,20.5l-18.8,18.9c-7.8-7.8-18.7-12.7-30.7-12.7
		c-12,0-22.8,4.9-30.7,12.7c-7.9,7.9-12.7,18.7-12.7,30.7c0,12,4.9,22.9,12.7,30.7c7.8,7.8,18.7,12.7,30.6,12.7
		c12,0,22.8-4.8,30.6-12.7L-87,4501.6z"/>
	<path class="st2" d="M49.2,4402.5c-1.9-1.9-4-3.8-6.1-5.5c-11.9-9.4-27-15-43.3-15c-16.4,0-31.4,5.6-43.3,15v-6.4v-8.7v-78h-26.7
		v86.6l0,0v58.9v4.9c0.6,18.4,8.4,35,20.5,47.1c1.9,1.9,4,3.8,6.1,5.5v-52.7c0-0.8-0.1-1.5-0.1-2.3s0-1.5,0.1-2.3
		c0.4-7.5,2.7-14.5,6.4-20.5c1.8-2.9,3.9-5.5,6.2-7.9c7.8-7.8,18.7-12.7,30.7-12.7c12,0,22.8,4.8,30.7,12.7
		c7.4,7.4,12.2,17.5,12.7,28.8c0,0.6,0,1.3,0,1.9c0,0.6,0,1.3,0,1.9v68.1h26.7V4452C69.7,4432.7,61.9,4415.2,49.2,4402.5z"/>
	<path class="st2" d="M-224.4,4438.6h-110c1.1-3.3,2.5-6.5,4.3-9.4c1.8-2.9,3.9-5.5,6.2-7.9c7.8-7.8,18.7-12.7,30.7-12.7
		c12,0,22.8,4.8,30.7,12.7l18.8-18.9c-12.7-12.6-30.2-20.5-49.5-20.5c-16.4,0-31.4,5.6-43.3,15c-2.2,1.7-4.2,3.5-6.2,5.5
		c-3.8,3.8-7.2,8.1-10.1,12.7c-4.4,7.1-7.5,15-9.2,23.4c-0.7,3.6-1.1,7.2-1.2,11v4.9c0.1,3.7,0.5,7.4,1.2,11h110
		c-1.1,3.4-2.6,6.5-4.4,9.5c-1.8,2.8-3.9,5.5-6.2,7.8c-7.8,7.8-18.7,12.7-30.6,12.7c-12,0-22.8-4.8-30.6-12.7l-12.7,12.7l-6.1,6.2
		c1.9,1.9,4,3.8,6.1,5.5c11.9,9.4,27,15,43.3,15c19.3,0,36.8-7.8,49.5-20.5c3.8-3.8,7.2-8,10-12.6c4.4-7.1,7.6-15,9.2-23.5
		c0.8-4.1,1.2-8.4,1.3-12.7v-1.4C-223.2,4447-223.6,4442.8-224.4,4438.6z M-293.1,4452.1l-0.2,0.1L-293.1,4452.1L-293.1,4452.1
		L-293.1,4452.1L-293.1,4452.1L-293.1,4452.1z"/>
	<circle class="st1" cx="569.2" cy="4317.3" r="13.3"/>
	<path class="st1" d="M538.6,4438.6h-110c1.1-3.3,2.5-6.5,4.3-9.4c1.8-2.9,3.9-5.5,6.2-7.9c7.8-7.8,18.7-12.7,30.7-12.7
		c12,0,22.8,4.8,30.7,12.7l18.8-18.9c-12.7-12.6-30.2-20.5-49.5-20.5c-16.4,0-31.4,5.6-43.3,15c-2.2,1.7-4.2,3.5-6.2,5.5
		c-3.8,3.8-7.2,8.1-10.1,12.7c-4.4,7.1-7.5,15-9.2,23.4c-0.7,3.6-1.1,7.2-1.2,11v4.9c0.1,3.7,0.5,7.4,1.2,11h110
		c-1.1,3.4-2.6,6.5-4.4,9.5c-1.8,2.8-3.9,5.5-6.2,7.8c-7.8,7.8-18.7,12.7-30.6,12.7c-12,0-22.8-4.8-30.6-12.7l-12.7,12.7l-6.1,6.2
		c1.9,1.9,4,3.8,6.1,5.5c11.9,9.4,27,15,43.3,15c19.3,0,36.8-7.8,49.5-20.5c3.8-3.8,7.2-8,10-12.6c4.4-7.1,7.6-15,9.2-23.5
		c0.8-4.1,1.2-8.4,1.3-12.7v-1.4C539.8,4447,539.4,4442.8,538.6,4438.6z M469.8,4452.1l-0.2,0.1L469.8,4452.1L469.8,4452.1
		L469.8,4452.1L469.8,4452.1L469.8,4452.1z"/>
</g>
<g>
	<g class="st3">
		<path class="st2" d="M-1534.7,4520.1c-18.1,0-35.2-7.1-48.1-19.9c-3.7-3.7-7-7.9-9.8-12.3c-6.2-10-9.7-21.6-10.2-33.5l0-4.7
			c0.4-11.8,3.9-23.4,10.2-33.4c2.8-4.5,6.1-8.6,9.8-12.3c12.8-12.8,29.9-19.8,48-19.8c15.5,0,30,5,42.1,14.6
			c0.4,0.3,0.8,0.5,1.3,0.5c0.3,0,0.6-0.1,0.8-0.2c0.7-0.3,1.2-1,1.2-1.8V4306h22.7v75.1c-0.2,0.4-0.2,0.8-0.1,1.2v53.1
			c0,0.1,0,0.3,0,0.4v16.9c-0.1,12.4-3.7,24.6-10.2,35.1c-2.8,4.4-6,8.6-9.8,12.3c-1.8,1.8-3.8,3.6-5.9,5.2l-0.1,0.1
			C-1504.6,4515-1519.2,4520.1-1534.7,4520.1z M-1534.7,4406.7c-12.1,0-23.5,4.7-32.1,13.3c-2.5,2.5-4.7,5.3-6.5,8.2
			c-4.4,7.2-6.8,15.4-6.8,23.9c0,8.5,2.4,16.8,6.8,23.9c1.8,3,4,5.7,6.5,8.2c8.6,8.5,20,13.3,32.1,13.3c12.1,0,23.5-4.7,32.1-13.3
			c2.5-2.5,4.7-5.2,6.5-8.2c4.2-6.7,6.5-14.5,6.8-22.4c0-0.5,0-1,0-1.6s0-1,0-1.6c-0.3-7.9-2.6-15.6-6.7-22.3
			c-1.9-3-4.1-5.8-6.6-8.3C-1511.2,4411.4-1522.6,4406.7-1534.7,4406.7z"/>
		<path class="st0" d="M-1468.5,4308v72.8c-0.1,0.5-0.2,1-0.1,1.6v53.1c0,0.2,0,0.4,0,0.5l0,16.7c-0.1,12.1-3.5,23.9-9.9,34.1
			c-2.7,4.3-5.9,8.3-9.5,11.9c-1.8,1.8-3.7,3.5-5.7,5.1c0,0,0,0-0.1,0c-11.7,9.3-25.9,14.2-40.9,14.2c-17.6,0-34.2-6.9-46.6-19.3
			c-3.6-3.6-6.8-7.6-9.5-12c-6-9.7-9.4-20.9-9.9-32.4v-4.6c0.4-11.5,3.8-22.7,9.9-32.4c2.7-4.3,5.9-8.4,9.5-12
			c12.5-12.4,29-19.3,46.6-19.3c15,0,29.1,4.9,40.9,14.2c0,0,0,0,0.1,0c0.7,0.6,1.6,0.9,2.5,0.9c0.6,0,1.2-0.1,1.7-0.4
			c1.4-0.7,2.3-2.1,2.3-3.6V4308H-1468.5 M-1534.7,4499.4c12.6,0,24.5-4.9,33.5-13.8c2.6-2.6,4.9-5.4,6.8-8.5
			c4.4-7,6.8-15.1,7.1-23.4c0-0.5,0-1.1,0-1.6s0-1.1,0-1.6c-0.3-8.2-2.7-16.3-7-23.3c-1.9-3.1-4.2-6-6.9-8.7
			c-8.9-8.9-20.8-13.9-33.5-13.9c-12.7,0-24.5,4.9-33.5,13.9c-2.6,2.6-4.9,5.5-6.8,8.6c-4.6,7.5-7.1,16.1-7.1,24.9
			c0,8.9,2.5,17.5,7.1,25c1.9,3.1,4.2,6,6.8,8.6C-1559.2,4494.5-1547.3,4499.4-1534.7,4499.4 M-1464.5,4304h-26.7v93.2
			c0,0-0.1,0-0.1-0.1c-11.9-9.4-27-15-43.4-15c-19.3,0-36.8,7.8-49.4,20.4c-3.8,3.8-7.2,8.1-10.1,12.7c-6.3,10.1-10,21.9-10.5,34.5
			v4.8c0.4,12.6,4.2,24.4,10.5,34.4c2.9,4.6,6.2,8.9,10.1,12.7c12.7,12.6,30.2,20.5,49.5,20.5c16.4,0,31.4-5.6,43.4-15
			c0,0,0.1,0,0.1-0.1c2.1-1.7,4.1-3.5,6-5.4c3.8-3.8,7.2-8,10-12.6c6.5-10.5,10.4-22.9,10.5-36.2v-17.3h0V4382h0l0,0h0.2V4304
			L-1464.5,4304z M-1534.7,4495.4c-12,0-22.8-4.8-30.6-12.7c-2.4-2.4-4.5-5-6.2-7.8c-4.1-6.6-6.5-14.5-6.5-22.9
			c0-8.4,2.4-16.2,6.5-22.8c1.8-2.9,3.9-5.5,6.2-7.9c7.8-7.8,18.7-12.7,30.7-12.7c12,0,22.8,4.8,30.7,12.7c2.4,2.4,4.5,5,6.3,7.9
			c3.8,6.2,6.2,13.5,6.4,21.3c0,0.5,0,1,0,1.5s0,1,0,1.5c-0.3,7.8-2.6,15.1-6.5,21.4c-1.8,2.8-3.9,5.5-6.2,7.8
			C-1511.9,4490.6-1522.7,4495.4-1534.7,4495.4L-1534.7,4495.4z"/>
	</g>
	<g class="st3">
		<path class="st2" d="M-857,4520v-66.6c0-0.5,0-1,0-1.5s0-1,0-1.6c-0.3-7.9-2.6-15.6-6.7-22.3c-1.9-3-4.1-5.8-6.6-8.3
			c-8.6-8.6-20-13.3-32.1-13.3c-12.1,0-23.5,4.7-32.1,13.3c-2.5,2.5-4.7,5.3-6.5,8.2c-4,6.5-6.3,13.9-6.7,21.5
			c0,0.8-0.1,1.6-0.1,2.4c0,0.8,0,1.6,0.1,2.3v48.5c-0.9-0.8-1.9-1.7-2.7-2.6c-12.3-12.2-19.3-28.5-19.9-45.8l0-4.9
			c0.4-11.8,3.9-23.3,10.1-33.3c2.8-4.5,6.1-8.6,9.8-12.3c1.9-1.9,3.9-3.7,6-5.3c12.1-9.5,26.6-14.6,42.1-14.6
			c15.5,0,30,5,42.1,14.6c2.1,1.6,4.1,3.4,5.9,5.3c3.7,3.7,7.1,7.9,9.8,12.4c6.5,10.5,10,22.6,10.1,35v68.8H-857z"/>
		<path class="st0" d="M-902.3,4385.9c15,0,29.1,4.9,40.9,14.2c2,1.6,4,3.3,5.8,5.1c3.6,3.6,6.8,7.7,9.5,12c6.3,10.2,9.7,22,9.8,34
			v66.8H-855v-64.5c0-0.5,0-1,0-1.6c0-0.5,0-1.1,0-1.6c-0.3-8.2-2.7-16.3-7-23.3c-1.9-3.1-4.2-6-6.9-8.7
			c-8.9-8.9-20.8-13.9-33.5-13.9c-12.7,0-24.5,4.9-33.5,13.9c-2.6,2.6-4.9,5.5-6.8,8.6c-4.2,6.7-6.6,14.5-7,22.4
			c0,0.8-0.1,1.7-0.1,2.5c0,0.8,0,1.6,0.1,2.4v43.8c-11.5-11.8-18.1-27.2-18.7-43.7v-4.8c0.4-11.5,3.8-22.6,9.8-32.4
			c2.7-4.3,5.9-8.4,9.5-12c1.8-1.8,3.8-3.6,5.8-5.2C-931.5,4390.8-917.3,4385.9-902.3,4385.9 M-902.3,4381.9
			c-16.4,0-31.4,5.6-43.3,15c-2.2,1.7-4.2,3.5-6.2,5.5c-3.8,3.8-7.2,8.1-10.1,12.7c-6.2,10.1-10,21.8-10.4,34.4v5
			c0.6,18.4,8.4,35,20.5,47.1c1.9,1.9,4,3.8,6.1,5.5v-52.8c0-0.8-0.1-1.5-0.1-2.3s0-1.5,0.1-2.3c0.4-7.5,2.7-14.5,6.4-20.5
			c1.8-2.9,3.9-5.5,6.2-7.9c7.8-7.8,18.7-12.7,30.7-12.7c12,0,22.8,4.8,30.7,12.7c2.4,2.4,4.5,5,6.3,7.9c3.8,6.2,6.2,13.5,6.4,21.3
			c0,0.5,0,1,0,1.5s0,1,0,1.5v68.6h26.7v-70.8c-0.1-13.2-3.9-25.6-10.4-36.1c-2.9-4.6-6.3-8.9-10.1-12.8c-1.9-1.9-4-3.7-6.1-5.4
			C-870.9,4387.5-886,4381.9-902.3,4381.9L-902.3,4381.9z"/>
	</g>
	<g class="st3">
		<g>
			<g>
				<path class="st2" d="M-1385.5,4520.1c-32.5,0-60.6-23.1-66.8-55c-0.7-3.5-1.1-7.1-1.2-10.7l0-4.8c0.1-3.5,0.5-7.1,1.2-10.6
					c2.6-13.3,9.1-25.4,18.7-35.1c12.8-12.8,29.9-19.9,48.1-19.9c32.5,0,60.6,23.1,66.8,55c0.8,4,1.2,8.2,1.2,12.4v1.4
					c0,3.6-0.4,7.2-1,10.7h-108.3c-0.6,0-1.2,0.3-1.6,0.8c-0.4,0.5-0.5,1.2-0.3,1.8c6.1,18.7,23.4,31.3,43.2,31.3
					c11.4,0,22.2-4.2,30.6-11.9l16,16C-1351.6,4513.6-1368.1,4520.1-1385.5,4520.1z M-1385.5,4406.7c-12.1,0-23.5,4.7-32.1,13.3
					c-5.1,5-8.9,11.3-11.1,18c-0.2,0.6-0.1,1.3,0.3,1.8c0.4,0.5,1,0.8,1.6,0.8h82.5c0.6,0,1.2-0.3,1.6-0.8c0.4-0.5,0.5-1.2,0.3-1.8
					C-1348.5,4419.3-1365.8,4406.7-1385.5,4406.7z"/>
				<path class="st0" d="M-1385.5,4386c31.5,0,58.8,22.4,64.8,53.4c0.8,3.9,1.2,8,1.2,12l0,1.4c0,2.9-0.3,5.9-0.7,8.7h-106.6
					c-1.3,0-2.5,0.6-3.2,1.6c-0.8,1-1,2.4-0.6,3.6c6.4,19.6,24.5,32.7,45.1,32.7c11.3,0,22-3.9,30.5-11.1l13.2,13.2
					c-12.1,10.7-27.5,16.6-43.7,16.6c-31.6,0-58.8-22.4-64.8-53.4c-0.7-3.4-1-6.8-1.2-10.3v-4.8c0.1-3.5,0.5-6.9,1.2-10.3
					c2.5-12.9,8.8-24.7,18.1-34C-1419.7,4392.9-1403.2,4386-1385.5,4386 M-1426.8,4442.6h82.5c1.3,0,2.5-0.6,3.2-1.6
					c0.8-1,1-2.4,0.6-3.6c-6.4-19.6-24.5-32.7-45.1-32.7c-12.7,0-24.5,4.9-33.5,13.9c-5.3,5.3-9.3,11.8-11.6,18.8
					c-0.4,1.2-0.2,2.6,0.6,3.6C-1429.3,4442-1428.1,4442.6-1426.8,4442.6 M-1385.5,4382c-19.3,0-36.8,7.8-49.5,20.5
					c-9.7,9.7-16.5,22.1-19.2,36.1c-0.7,3.6-1.1,7.2-1.2,11v4.9c0.1,3.7,0.5,7.4,1.2,11c6.3,32.3,34.7,56.6,68.7,56.6
					c19.3,0,36.8-7.8,49.5-20.5l-18.8-18.9c-7.8,7.8-18.7,12.7-30.6,12.7c-19.3,0-35.6-12.6-41.3-30h110c0.8-4.1,1.2-8.4,1.3-12.7
					v-1.4c0-4.3-0.5-8.6-1.3-12.7C-1323.1,4406.4-1351.5,4382-1385.5,4382L-1385.5,4382z M-1426.8,4438.6
					c2.1-6.6,5.8-12.5,10.6-17.2c7.8-7.8,18.7-12.7,30.7-12.7c19.3,0,35.6,12.6,41.3,29.9H-1426.8L-1426.8,4438.6z"/>
			</g>
		</g>
	</g>
	<g>
		<g class="st3">
			<path class="st2" d="M-1051.4,4519.9c-15.4,0-30-5-42.1-14.6c-2.1-1.6-4.1-3.4-6-5.3c-3.7-3.7-7-7.9-9.8-12.3
				c-6.2-10-9.7-21.6-10.2-33.5l0-4.8c0.1-1.7,0.2-3.5,0.4-5.2c1.1-10.1,4.4-19.5,9.7-28.1c2.8-4.5,6.1-8.6,9.8-12.3
				c1.9-1.9,3.9-3.7,6-5.3c12.1-9.5,26.6-14.6,42.1-14.6c15.5,0,30,5,42.1,14.6c2.1,1.6,4.1,3.4,5.9,5.3c3.7,3.7,7.1,7.9,9.8,12.4
				c6.5,10.5,10,22.6,10.1,35v1.4c-0.1,12.4-3.7,24.6-10.2,35.1c-2.8,4.4-6,8.6-9.8,12.3c-1.9,1.9-3.9,3.6-5.9,5.3
				C-1021.4,4514.9-1035.9,4519.9-1051.4,4519.9z M-1051.4,4406.5c-12.1,0-23.5,4.7-32.1,13.3c-2.5,2.5-4.7,5.3-6.5,8.2
				c-4,6.5-6.3,13.9-6.7,21.5c0,0.8-0.1,1.6-0.1,2.4c0,0.8,0,1.6,0.1,2.4c0.4,7.6,2.7,15.1,6.8,21.5c1.8,3,4,5.7,6.5,8.2
				c8.6,8.5,20,13.3,32.1,13.3c12.1,0,23.5-4.7,32.1-13.3c2.5-2.5,4.7-5.2,6.5-8.2c4.2-6.7,6.5-14.5,6.8-22.4c0-0.5,0-1,0-1.6
				s0-1,0-1.6c-0.3-7.9-2.6-15.6-6.7-22.3c-1.9-3-4.1-5.8-6.6-8.3C-1027.9,4411.2-1039.3,4406.5-1051.4,4406.5z"/>
			<path class="st0" d="M-1051.4,4385.9c15,0,29.1,4.9,40.9,14.2c2,1.6,4,3.3,5.8,5.1c3.6,3.6,6.8,7.7,9.5,12
				c6.3,10.2,9.7,22,9.8,34l0,1.4c-0.1,12.1-3.5,23.9-9.9,34.1c-2.7,4.3-5.9,8.3-9.5,11.9c-1.8,1.8-3.8,3.5-5.8,5.1
				c-11.7,9.3-25.9,14.2-40.9,14.2c-15,0-29.1-4.9-40.8-14.1c-2-1.6-4-3.3-5.8-5.1c-3.6-3.6-6.8-7.6-9.5-12
				c-6-9.7-9.4-20.9-9.9-32.4v-4.8c0.1-1.7,0.2-3.4,0.4-5.1c1.1-9.8,4.3-18.9,9.4-27.3c2.7-4.3,5.9-8.4,9.5-12
				c1.8-1.8,3.8-3.6,5.8-5.2C-1080.5,4390.8-1066.4,4385.9-1051.4,4385.9 M-1051.4,4499.3c12.6,0,24.5-4.9,33.5-13.8
				c2.6-2.6,4.9-5.4,6.8-8.5c4.4-7,6.8-15.1,7.1-23.4c0-0.5,0-1.1,0-1.6c0-0.5,0-1.1,0-1.6c-0.3-8.2-2.7-16.3-7-23.3
				c-1.9-3.1-4.2-6-6.9-8.7c-8.9-8.9-20.8-13.9-33.5-13.9c-12.7,0-24.5,4.9-33.5,13.9c-2.6,2.6-4.9,5.5-6.8,8.6
				c-4.2,6.7-6.6,14.5-7,22.4c0,0.8-0.1,1.7-0.1,2.5s0,1.7,0.1,2.5c0.4,8,2.8,15.7,7.1,22.5c1.9,3.1,4.2,6,6.8,8.6
				C-1075.9,4494.4-1064,4499.3-1051.4,4499.3 M-1051.4,4381.9c-16.4,0-31.4,5.6-43.3,15c-2.2,1.7-4.2,3.5-6.2,5.5
				c-3.8,3.8-7.2,8.1-10.1,12.7c-5.3,8.6-8.8,18.4-10,29c-0.2,1.8-0.3,3.6-0.4,5.4v4.9c0.4,12.6,4.2,24.4,10.5,34.4
				c2.9,4.6,6.2,8.9,10.1,12.7c1.9,1.9,4,3.8,6.1,5.5c11.9,9.4,27,15,43.3,15c16.4,0,31.4-5.6,43.4-15c2.1-1.7,4.2-3.5,6.1-5.4
				c3.8-3.8,7.2-8,10-12.6c6.5-10.5,10.4-22.9,10.5-36.2v-1.4c-0.1-13.2-3.9-25.6-10.4-36.1c-2.9-4.6-6.3-8.9-10.1-12.8
				c-1.9-1.9-4-3.7-6.1-5.4C-1019.9,4387.5-1035,4381.9-1051.4,4381.9L-1051.4,4381.9z M-1051.4,4495.3c-12,0-22.8-4.8-30.6-12.7
				c-2.4-2.4-4.5-5-6.2-7.8c-3.8-6-6.1-13.1-6.5-20.6c0-0.8-0.1-1.5-0.1-2.3s0-1.5,0.1-2.3c0.4-7.5,2.7-14.5,6.4-20.5
				c1.8-2.9,3.9-5.5,6.2-7.9c7.8-7.8,18.7-12.7,30.7-12.7c12,0,22.8,4.8,30.7,12.7c2.4,2.4,4.5,5,6.3,7.9c3.8,6.2,6.2,13.5,6.4,21.3
				c0,0.5,0,1,0,1.5c0,0.5,0,1,0,1.5c-0.3,7.8-2.6,15.1-6.5,21.4c-1.8,2.8-3.9,5.5-6.2,7.8
				C-1028.6,4490.4-1039.4,4495.3-1051.4,4495.3L-1051.4,4495.3z"/>
		</g>
		<g class="st3">
			<path class="st2" d="M-1051.4,4639.4c-15.4,0-30-5-42.1-14.6c-1.6-1.2-3.1-2.5-4.5-3.9l16-16c8.4,7.7,19.2,11.9,30.6,11.9
				c12.1,0,23.5-4.7,32.1-13.3c2.5-2.5,4.7-5.2,6.5-8.2c4.2-6.7,6.5-14.5,6.8-22.4c0-0.5,0-1,0-1.6s0-1,0-1.6
				c-0.3-7.9-2.6-15.6-6.7-22.3c-1.5-2.4-3.2-4.7-5.2-6.8l16-16c3.2,3.4,6,7,8.4,11c6.6,10.7,10.1,23.1,10.1,35.7
				c0,12.7-3.5,25.1-10.2,35.9c-2.8,4.4-6,8.6-9.8,12.3c-1.9,1.9-3.9,3.6-5.9,5.3C-1021.4,4634.4-1035.9,4639.4-1051.4,4639.4z"/>
			<path class="st0" d="M-1002,4527.6c2.5,2.8,4.8,5.9,6.8,9.1c6.4,10.4,9.8,22.4,9.8,34.7c0,12.3-3.4,24.4-9.9,34.8
				c-2.7,4.3-5.9,8.3-9.5,11.9c-1.8,1.8-3.8,3.5-5.8,5.1c-11.7,9.3-25.9,14.2-40.9,14.2c-15,0-29.1-4.9-40.8-14.1
				c-1-0.8-1.9-1.6-2.9-2.4l3.2-3.2l10-10c8.5,7.2,19.2,11.1,30.5,11.1c12.6,0,24.5-4.9,33.5-13.8c2.6-2.6,4.9-5.4,6.8-8.5
				c4.4-7,6.8-15.1,7.1-23.4c0-0.5,0-1.1,0-1.6c0-0.5,0-1.1,0-1.6c-0.3-8.2-2.7-16.3-7-23.3c-1.2-2-2.6-3.9-4.1-5.7l10-10
				L-1002,4527.6 M-1001.9,4521.8l-6.1,6.1l-12.7,12.7c2.4,2.4,4.5,5,6.3,7.9c3.8,6.2,6.2,13.5,6.4,21.3c0,0.5,0,1,0,1.5
				c0,0.5,0,1,0,1.5c-0.3,7.8-2.6,15.1-6.5,21.4c-1.8,2.8-3.9,5.5-6.2,7.8c-7.8,7.8-18.7,12.7-30.6,12.7c-12,0-22.8-4.8-30.6-12.7
				l-12.7,12.7l-6.1,6.2c1.9,1.9,4,3.8,6.1,5.5c11.9,9.4,27,15,43.3,15c16.4,0,31.4-5.6,43.4-15c2.1-1.7,4.2-3.5,6.1-5.4
				c3.8-3.8,7.2-8,10-12.6c6.7-10.7,10.5-23.4,10.5-36.9c0-13.5-3.8-26.1-10.4-36.8C-994.6,4529.9-998,4525.7-1001.9,4521.8
				L-1001.9,4521.8z"/>
		</g>
	</g>
	<g>
		<g class="st3">
			<rect x="-1154.8" y="4384.5" class="st2" width="22.5" height="135.6"/>
			<path class="st0" d="M-1134.4,4386.5v131.6h-18.5v-131.6H-1134.4 M-1130.4,4382.5h-26.5v139.6h26.5V4382.5L-1130.4,4382.5z"/>
		</g>
		<g class="st3">
			<path class="st2" d="M-1144.2,4328.7c-6.2,0-11.3-5.1-11.3-11.3c0-6.2,5.1-11.3,11.3-11.3s11.3,5.1,11.3,11.3
				C-1132.8,4323.6-1137.9,4328.7-1144.2,4328.7z"/>
			<path class="st0" d="M-1144.2,4308c5.1,0,9.3,4.2,9.3,9.3s-4.2,9.3-9.3,9.3c-5.1,0-9.3-4.2-9.3-9.3S-1149.3,4308-1144.2,4308
				 M-1144.2,4304c-7.4,0-13.3,6-13.3,13.3s6,13.3,13.3,13.3s13.3-6,13.3-13.3S-1136.8,4304-1144.2,4304L-1144.2,4304z"/>
		</g>
	</g>
	<g class="st3">
		<path class="st2" d="M-1236.5,4520.1c-15.4,0-30-5-42.1-14.6c-1.6-1.2-3.1-2.5-4.5-3.9l16-16c8.4,7.7,19.2,11.9,30.6,11.9
			c12.1,0,23.5-4.7,32.1-13.3c2.5-2.5,4.7-5.2,6.5-8.2c1.9-3.1,3.5-6.4,4.6-9.9c0.2-0.6,0.1-1.3-0.3-1.8c-0.4-0.5-1-0.8-1.6-0.8
			h-108.3c-0.5-3-0.8-6-0.9-9l0-4.8c0.1-3.5,0.5-7.1,1.2-10.6c1.6-8.1,4.6-15.7,8.9-22.7c2.8-4.5,6.1-8.6,9.8-12.3
			c1.9-1.9,3.9-3.7,6-5.3c12.1-9.5,26.6-14.6,42.1-14.6c17.5,0,34,6.6,46.6,18.5l-16,16c-8.4-7.7-19.2-11.9-30.6-11.9
			c-12.1,0-23.5,4.7-32.1,13.3c-2.5,2.5-4.7,5.3-6.5,8.2c-1.9,3.1-3.4,6.4-4.6,9.8c-0.2,0.6-0.1,1.3,0.3,1.8c0.4,0.5,1,0.8,1.6,0.8
			h108.3c0.6,3.5,0.9,7.1,1,10.7v1.4c0,4.1-0.5,8.3-1.2,12.3c-1.6,8.1-4.6,15.8-9,22.8c-2.8,4.4-6,8.6-9.8,12.3
			C-1201.3,4513-1218.4,4520.1-1236.5,4520.1z M-1236.5,4450.1c-0.5,0-1.1,0.2-1.5,0.5l-0.1,0.1c-0.7,0.7-0.8,1.9-0.2,2.7
			c0.4,0.5,1,0.8,1.6,0.8c0.2,0,0.3,0,0.5-0.1c0.5-0.1,1-0.3,1.3-0.7c0.6-0.8,0.6-1.9-0.1-2.7
			C-1235.4,4450.4-1235.9,4450.1-1236.5,4450.1C-1236.5,4450.1-1236.5,4450.1-1236.5,4450.1z"/>
		<path class="st0" d="M-1236.5,4386c16.3,0,31.7,5.9,43.7,16.6l-13.2,13.2c-8.5-7.2-19.2-11.1-30.5-11.1
			c-12.7,0-24.5,4.9-33.5,13.9c-2.6,2.6-4.9,5.5-6.8,8.6c-2,3.2-3.6,6.7-4.8,10.2c-0.4,1.2-0.2,2.6,0.6,3.6s2,1.6,3.2,1.6h106.6
			c0.4,2.9,0.6,5.8,0.7,8.7l0,1.4c0,4-0.4,8.1-1.2,12c-1.5,7.9-4.5,15.3-8.7,22.1c-2.7,4.3-5.9,8.3-9.5,11.9
			c-12.5,12.4-29,19.3-46.7,19.3c-15,0-29.1-4.9-40.8-14.1c-1-0.8-1.9-1.6-2.9-2.4l3.2-3.2l10-10c8.5,7.2,19.2,11.1,30.5,11.1
			c12.6,0,24.5-4.9,33.5-13.8c2.6-2.6,4.9-5.4,6.8-8.5c2-3.2,3.6-6.7,4.8-10.3c0.4-1.2,0.2-2.6-0.6-3.6c-0.8-1-2-1.6-3.2-1.6h-106.6
			c-0.3-2.3-0.5-4.7-0.6-7v-4.8c0.1-3.5,0.5-6.9,1.2-10.3c1.5-7.8,4.4-15.3,8.6-22.1c2.7-4.3,5.9-8.4,9.5-12
			c1.8-1.8,3.8-3.6,5.8-5.2C-1265.6,4390.9-1251.5,4386-1236.5,4386 M-1236.7,4456.2c0.3,0,0.6,0,0.8-0.1c1-0.1,1.9-0.6,2.5-1.4
			c1.3-1.6,1.2-3.9-0.3-5.3l-0.1-0.1c0,0-0.1-0.1-0.1-0.1c-0.8-0.8-1.8-1.2-2.8-1.2c-1,0-2,0.4-2.8,1.2c0,0,0,0-0.1,0.1l-0.1,0.1
			c-1.4,1.4-1.6,3.7-0.3,5.3C-1239,4455.7-1237.9,4456.2-1236.7,4456.2 M-1236.5,4382c-16.4,0-31.4,5.6-43.3,15
			c-2.2,1.7-4.2,3.5-6.2,5.5c-3.8,3.8-7.2,8.1-10.1,12.7c-4.4,7.1-7.5,15-9.2,23.4c-0.7,3.6-1.1,7.2-1.2,11v4.9
			c0.1,3.7,0.6,7.4,1.2,11h110c-1.1,3.4-2.6,6.5-4.4,9.5c-1.8,2.8-3.9,5.5-6.2,7.8c-7.8,7.8-18.7,12.7-30.6,12.7
			c-12,0-22.8-4.8-30.6-12.7l-12.7,12.7l-6.1,6.2c1.9,1.9,4,3.8,6.1,5.5c11.9,9.4,27,15,43.3,15c19.3,0,36.8-7.8,49.5-20.5
			c3.8-3.8,7.2-8,10-12.6c4.4-7.1,7.6-15,9.2-23.5c0.8-4.1,1.2-8.4,1.3-12.7v-1.4c0-4.3-0.5-8.6-1.3-12.7h-110
			c1.1-3.3,2.5-6.5,4.3-9.4c1.8-2.9,3.9-5.5,6.2-7.9c7.8-7.8,18.7-12.7,30.7-12.7c12,0,22.8,4.8,30.7,12.7l18.8-18.9
			C-1199.7,4389.9-1217.2,4382-1236.5,4382L-1236.5,4382z M-1236.7,4452.2l0.1-0.1l0,0l0,0l0.1,0.1l-0.1-0.1L-1236.7,4452.2
			L-1236.7,4452.2z"/>
	</g>
</g>
<g>
	<g class="st3">
		<path class="st2" d="M-477.8,4598.1v-91c0-0.8-0.4-1.5-1.1-1.8c-0.3-0.1-0.6-0.2-0.9-0.2c-0.4,0-0.9,0.1-1.2,0.4
			c-12.1,9.5-26.6,14.6-42.1,14.6c-15.4,0-30-5-42.1-14.6c-2.1-1.6-4.1-3.4-6-5.3c-12.9-12.9-20-30-20-48.1V4384h22.7v66.1
			c0,0.6,0,1.3,0,1.9c0,0.7,0,1.4,0,2c0.5,11.4,5.2,22,13.3,30.1c8.6,8.6,20,13.3,32.1,13.3c12.1,0,23.5-4.7,32.1-13.3
			c2.5-2.5,4.7-5.3,6.5-8.2c4-6.5,6.3-13.9,6.7-21.5c0-0.8,0.1-1.6,0.1-2.4c0-0.8,0-1.6-0.1-2.3v-48.4c0.9,0.8,1.9,1.7,2.7,2.6
			c12.3,12.2,19.3,28.5,19.9,45.8l0,63.8c0,0.1,0,0.2,0,0.3v84.3H-477.8z"/>
		<path class="st0" d="M-570.5,4386v64c0,0.7,0,1.3,0,2c0,0.7,0,1.4,0,2.1c0.5,11.9,5.4,23,13.9,31.4c8.9,8.9,20.8,13.9,33.5,13.9
			c12.7,0,24.5-4.9,33.5-13.9c2.6-2.6,4.9-5.5,6.8-8.6c4.2-6.7,6.6-14.5,7-22.4c0-0.8,0.1-1.7,0.1-2.5c0-0.8,0-1.6-0.1-2.4V4406
			c11.5,11.8,18.1,27.2,18.7,43.7v4.8v58.9c0,0.1,0,0.3,0,0.4v82.2h-18.7v-74v-8.7v-6.4c0-1.5-0.9-2.9-2.3-3.6
			c-0.6-0.3-1.2-0.4-1.7-0.4c-0.9,0-1.8,0.3-2.5,0.9c-11.7,9.3-25.9,14.1-40.8,14.1c-15,0-29.1-4.9-40.9-14.2c-2-1.6-4-3.3-5.8-5.1
			c-12.5-12.5-19.4-29.1-19.4-46.7V4386H-570.5 M-566.5,4382h-26.7v70.1c0,19.4,7.9,36.9,20.6,49.6c1.9,1.9,4,3.8,6.1,5.5
			c11.9,9.4,27,15,43.3,15c16.4,0,31.4-5.6,43.3-15v6.4v8.7v78h26.7v-86.6l0,0v-58.9v-4.9c-0.6-18.4-8.4-35-20.5-47.1
			c-1.9-1.9-4-3.8-6.1-5.5v52.7c0,0.8,0.1,1.5,0.1,2.3s0,1.5-0.1,2.3c-0.4,7.5-2.7,14.5-6.4,20.5c-1.8,2.9-3.9,5.5-6.2,7.9
			c-7.8,7.8-18.7,12.7-30.7,12.7c-12,0-22.8-4.8-30.7-12.7c-7.4-7.4-12.2-17.5-12.7-28.8c0-0.6,0-1.3,0-1.9c0-0.6,0-1.3,0-1.9V4382
			L-566.5,4382z"/>
	</g>
	<g class="st3">
		<path class="st2" d="M-672.2,4520.1c-15.5,0-30-5-42.1-14.6l-0.1-0.1c-2-1.6-4-3.4-5.9-5.2c-3.7-3.7-7-7.8-9.8-12.3
			c-6.5-10.5-10.1-22.7-10.2-35.2v-16.9c0-0.1,0-0.3,0-0.4v-53.2c0.1-0.4,0-0.8-0.1-1.1V4306h22.7v91.2c0,0.8,0.4,1.5,1.1,1.8
			c0.3,0.1,0.6,0.2,0.9,0.2c0.4,0,0.9-0.1,1.2-0.4c0,0,0.1-0.1,0.1-0.1c12.1-9.6,26.7-14.6,42.1-14.6c18.1,0,35.2,7,48,19.8
			c3.7,3.7,7,7.9,9.8,12.3c6.2,10.1,9.8,21.6,10.2,33.5l0,4.7c-0.4,11.8-3.9,23.4-10.2,33.4c-2.8,4.5-6.1,8.6-9.8,12.3
			C-637,4513-654,4520.1-672.2,4520.1z M-672.2,4406.7c-12.1,0-23.5,4.7-32.1,13.3c-2.5,2.5-4.7,5.3-6.6,8.3
			c-4.1,6.7-6.5,14.4-6.7,22.3c0,0.5,0,1,0,1.6s0,1,0,1.6c0.3,7.9,2.6,15.7,6.8,22.4c1.8,3,4,5.7,6.5,8.2c8.6,8.6,20,13.3,32.1,13.3
			c12.1,0,23.5-4.7,32.1-13.3c2.5-2.5,4.7-5.2,6.5-8.2c4.5-7.2,6.8-15.4,6.8-23.9c0-8.5-2.3-16.7-6.8-23.9c-1.8-3-4-5.8-6.5-8.2
			C-648.7,4411.4-660.1,4406.7-672.2,4406.7z"/>
		<path class="st0" d="M-719.6,4308v89.2c0,1.5,0.9,2.9,2.3,3.6c0.6,0.3,1.2,0.4,1.7,0.4c0.9,0,1.8-0.3,2.5-0.9c0,0,0,0,0,0
			c0,0,0,0,0.1,0c11.7-9.3,25.9-14.2,40.9-14.2c17.6,0,34.1,6.8,46.6,19.3c3.6,3.6,6.8,7.6,9.5,12c6.1,9.7,9.5,21,9.9,32.4v4.6
			c-0.4,11.5-3.8,22.7-9.9,32.4c-2.7,4.3-5.9,8.4-9.5,12c-12.5,12.4-29,19.3-46.6,19.3c-15,0-29.1-4.9-40.9-14.2c0,0,0,0-0.1,0
			c-2-1.6-3.9-3.3-5.7-5.1c-3.6-3.6-6.8-7.6-9.5-11.9c-6.4-10.2-9.8-22-9.9-34.1V4436c0-0.2,0-0.4,0-0.6v-53c0.1-0.6,0-1.1-0.1-1.6
			V4308H-719.6 M-672.2,4499.4c12.6,0,24.5-4.9,33.5-13.8c2.6-2.6,4.9-5.5,6.8-8.6c4.7-7.5,7.1-16.1,7.1-25c0-8.8-2.4-17.4-7.1-24.9
			c-1.9-3.1-4.2-6-6.8-8.6c-8.9-8.9-20.8-13.9-33.5-13.9c-12.6,0-24.5,4.9-33.5,13.9c-2.6,2.6-4.9,5.5-6.9,8.7c-4.3,7-6.7,15-7,23.3
			c0,0.5,0,1.1,0,1.6s0,1.1,0,1.6c0.3,8.3,2.7,16.4,7.1,23.4c1.9,3.1,4.2,6,6.8,8.5C-696.7,4494.5-684.8,4499.4-672.2,4499.4
			 M-715.6,4304h-26.7v78h0.2l0,0h0v53.5h0v17.3c0.1,13.3,4,25.7,10.5,36.2c2.9,4.6,6.2,8.8,10,12.6c1.9,1.9,3.9,3.7,6,5.4
			c0,0,0.1,0,0.1,0.1c11.9,9.4,27,15,43.4,15c19.3,0,36.8-7.8,49.5-20.5c3.8-3.8,7.2-8.1,10.1-12.7c6.3-10.1,10-21.8,10.5-34.4v-4.8
			c-0.4-12.6-4.2-24.4-10.5-34.5c-2.9-4.6-6.3-8.9-10.1-12.7c-12.7-12.6-30.1-20.4-49.4-20.4c-16.4,0-31.4,5.6-43.4,15
			c0,0-0.1,0-0.1,0.1V4304L-715.6,4304z M-672.2,4495.4c-12,0-22.8-4.8-30.6-12.7c-2.4-2.4-4.4-5-6.2-7.8
			c-3.9-6.2-6.2-13.6-6.5-21.4c0-0.5,0-1,0-1.5s0-1,0-1.5c0.3-7.8,2.6-15.1,6.4-21.3c1.8-2.9,3.9-5.5,6.3-7.9
			c7.8-7.8,18.7-12.7,30.7-12.7c12,0,22.8,4.9,30.7,12.7c2.4,2.4,4.5,5,6.2,7.9c4.1,6.6,6.5,14.4,6.5,22.8c0,8.4-2.4,16.2-6.5,22.9
			c-1.8,2.8-3.9,5.5-6.2,7.8C-649.4,4490.6-660.2,4495.4-672.2,4495.4L-672.2,4495.4z"/>
	</g>
</g>
</svg>
